<svg width="1512" height="982" viewBox="0 0 1512 982" fill="none" xmlns="http://www.w3.org/2000/svg">
<rect width="1512" height="982" fill="white"/>
<mask id="path-1-outside-1_125_45" maskUnits="userSpaceOnUse" x="86" y="55" width="626" height="130" fill="black">
<rect fill="white" x="86" y="55" width="626" height="130"/>
<path d="M87.096 102.688C87.096 93.8133 88.9307 85.92 92.6 79.008C96.3547 72.0107 101.645 66.592 108.472 62.752C115.299 58.8267 123.149 56.864 132.024 56.864C143.288 56.864 152.76 59.8933 160.44 65.952C168.12 71.9253 173.069 80.0747 175.288 90.4H148.28C146.659 86.9867 144.397 84.384 141.496 82.592C138.68 80.8 135.395 79.904 131.64 79.904C125.837 79.904 121.187 81.9947 117.688 86.176C114.275 90.272 112.568 95.776 112.568 102.688C112.568 109.685 114.275 115.275 117.688 119.456C121.187 123.552 125.837 125.6 131.64 125.6C135.395 125.6 138.68 124.704 141.496 122.912C144.397 121.12 146.659 118.517 148.28 115.104H175.288C173.069 125.429 168.12 133.621 160.44 139.68C152.76 145.653 143.288 148.64 132.024 148.64C123.149 148.64 115.299 146.72 108.472 142.88C101.645 138.955 96.3547 133.536 92.6 126.624C88.9307 119.627 87.096 111.648 87.096 102.688ZM183.072 112.032C183.072 104.608 184.395 98.1227 187.04 92.576C189.771 87.0293 193.44 82.7627 198.048 79.776C202.741 76.7893 207.947 75.296 213.664 75.296C218.613 75.296 222.88 76.2773 226.464 78.24C230.048 80.2027 232.821 82.848 234.784 86.176V76.192H259.872V148H234.784V138.016C232.821 141.344 230.005 143.989 226.336 145.952C222.752 147.915 218.528 148.896 213.664 148.896C207.947 148.896 202.741 147.403 198.048 144.416C193.44 141.429 189.771 137.163 187.04 131.616C184.395 125.984 183.072 119.456 183.072 112.032ZM234.784 112.032C234.784 107.424 233.504 103.797 230.944 101.152C228.469 98.5067 225.397 97.184 221.728 97.184C217.973 97.184 214.859 98.5067 212.384 101.152C209.909 103.712 208.672 107.339 208.672 112.032C208.672 116.64 209.909 120.309 212.384 123.04C214.859 125.685 217.973 127.008 221.728 127.008C225.397 127.008 228.469 125.685 230.944 123.04C233.504 120.395 234.784 116.725 234.784 112.032ZM316.536 126.624V148H305.656C287.309 148 278.136 138.912 278.136 120.736V97.056H269.304V76.192H278.136V58.784H303.352V76.192H316.408V97.056H303.352V121.12C303.352 123.083 303.779 124.491 304.632 125.344C305.571 126.197 307.107 126.624 309.24 126.624H316.536ZM396.651 111.264C396.651 113.227 396.523 115.189 396.267 117.152H348.779C349.035 121.077 350.102 124.021 351.979 125.984C353.942 127.861 356.416 128.8 359.403 128.8C363.584 128.8 366.571 126.923 368.363 123.168H395.115C394.006 128.117 391.83 132.555 388.587 136.48C385.43 140.32 381.419 143.349 376.555 145.568C371.691 147.787 366.315 148.896 360.427 148.896C353.344 148.896 347.03 147.403 341.483 144.416C336.022 141.429 331.712 137.163 328.555 131.616C325.483 126.069 323.947 119.541 323.947 112.032C323.947 104.523 325.483 98.0373 328.555 92.576C331.627 87.0293 335.894 82.7627 341.355 79.776C346.902 76.7893 353.259 75.296 360.427 75.296C367.51 75.296 373.782 76.7467 379.243 79.648C384.704 82.5493 388.971 86.7307 392.043 92.192C395.115 97.568 396.651 103.925 396.651 111.264ZM371.051 104.992C371.051 101.92 370.027 99.5307 367.979 97.824C365.931 96.032 363.371 95.136 360.299 95.136C357.227 95.136 354.71 95.9893 352.747 97.696C350.784 99.3173 349.504 101.749 348.907 104.992H371.051ZM433.414 75.296C438.278 75.296 442.502 76.2773 446.086 78.24C449.755 80.2027 452.571 82.848 454.534 86.176V76.192H479.622V147.232C479.622 153.973 478.342 160.032 475.782 165.408C473.222 170.869 469.211 175.221 463.75 178.464C458.374 181.707 451.547 183.328 443.27 183.328C432.177 183.328 423.302 180.725 416.646 175.52C409.99 170.315 406.193 163.232 405.254 154.272H429.958C430.47 156.576 431.75 158.368 433.798 159.648C435.846 160.928 438.491 161.568 441.734 161.568C450.267 161.568 454.534 156.789 454.534 147.232V138.016C452.571 141.344 449.755 143.989 446.086 145.952C442.502 147.915 438.278 148.896 433.414 148.896C427.697 148.896 422.491 147.403 417.798 144.416C413.19 141.429 409.521 137.163 406.79 131.616C404.145 125.984 402.822 119.456 402.822 112.032C402.822 104.608 404.145 98.1227 406.79 92.576C409.521 87.0293 413.19 82.7627 417.798 79.776C422.491 76.7893 427.697 75.296 433.414 75.296ZM454.534 112.032C454.534 107.424 453.254 103.797 450.694 101.152C448.219 98.5067 445.147 97.184 441.478 97.184C437.723 97.184 434.609 98.5067 432.134 101.152C429.659 103.712 428.422 107.339 428.422 112.032C428.422 116.64 429.659 120.309 432.134 123.04C434.609 125.685 437.723 127.008 441.478 127.008C445.147 127.008 448.219 125.685 450.694 123.04C453.254 120.395 454.534 116.725 454.534 112.032ZM527.326 148.896C520.158 148.896 513.715 147.403 507.998 144.416C502.366 141.429 497.929 137.163 494.686 131.616C491.443 126.069 489.822 119.541 489.822 112.032C489.822 104.608 491.443 98.1227 494.686 92.576C498.014 87.0293 502.494 82.7627 508.126 79.776C513.843 76.7893 520.286 75.296 527.454 75.296C534.622 75.296 541.022 76.7893 546.654 79.776C552.371 82.7627 556.851 87.0293 560.094 92.576C563.422 98.1227 565.086 104.608 565.086 112.032C565.086 119.456 563.422 125.984 560.094 131.616C556.851 137.163 552.371 141.429 546.654 144.416C540.937 147.403 534.494 148.896 527.326 148.896ZM527.326 127.136C530.825 127.136 533.726 125.856 536.03 123.296C538.419 120.651 539.614 116.896 539.614 112.032C539.614 107.168 538.419 103.456 536.03 100.896C533.726 98.336 530.867 97.056 527.454 97.056C524.041 97.056 521.182 98.336 518.878 100.896C516.574 103.456 515.422 107.168 515.422 112.032C515.422 116.981 516.531 120.736 518.75 123.296C520.969 125.856 523.827 127.136 527.326 127.136ZM600.381 88.864C603.197 84.768 606.61 81.5253 610.621 79.136C614.632 76.7467 618.941 75.552 623.549 75.552V102.304H616.509C611.048 102.304 606.994 103.371 604.349 105.504C601.704 107.637 600.381 111.349 600.381 116.64V148H575.293V76.192H600.381V88.864ZM709.855 76.192L664.287 182.176H637.023L654.175 144.928L624.735 76.192H652.639L667.743 116.896L682.335 76.192H709.855Z"/>
</mask>
<path d="M92.6 79.008L91.7188 78.5352L91.7167 78.5391L92.6 79.008ZM108.472 62.752L108.962 63.6236L108.97 63.6189L108.472 62.752ZM160.44 65.952L159.821 66.7371L159.826 66.7413L160.44 65.952ZM175.288 90.4V91.4H176.526L176.266 90.1899L175.288 90.4ZM148.28 90.4L147.377 90.8291L147.648 91.4H148.28V90.4ZM141.496 82.592L140.959 83.4357L140.971 83.4428L141.496 82.592ZM117.688 86.176L116.921 85.5343L116.92 85.5358L117.688 86.176ZM117.688 119.456L116.913 120.088L116.92 120.097L116.928 120.105L117.688 119.456ZM141.496 122.912L140.97 122.061L140.959 122.068L141.496 122.912ZM148.28 115.104V114.104H147.648L147.377 114.675L148.28 115.104ZM175.288 115.104L176.266 115.314L176.526 114.104H175.288V115.104ZM160.44 139.68L161.054 140.469L161.059 140.465L160.44 139.68ZM108.472 142.88L107.974 143.747L107.982 143.752L108.472 142.88ZM92.6 126.624L91.7144 127.088L91.7178 127.095L91.7213 127.101L92.6 126.624ZM88.096 102.688C88.096 93.9547 89.9003 86.2261 93.4833 79.4769L91.7167 78.5391C87.961 85.6139 86.096 93.672 86.096 102.688H88.096ZM93.4812 79.4808C97.1474 72.6484 102.304 67.3691 108.962 63.6236L107.982 61.8804C100.987 65.8149 95.562 71.373 91.7188 78.5352L93.4812 79.4808ZM108.97 63.6189C115.627 59.7914 123.302 57.864 132.024 57.864V55.864C122.997 55.864 114.97 57.8619 107.974 61.8851L108.97 63.6189ZM132.024 57.864C143.099 57.864 152.343 60.8382 159.821 66.7371L161.059 65.1669C153.177 58.9484 143.477 55.864 132.024 55.864V57.864ZM159.826 66.7413C167.304 72.5576 172.137 80.4935 174.31 90.6101L176.266 90.1899C174.002 79.6558 168.936 71.293 161.054 65.1626L159.826 66.7413ZM175.288 89.4H148.28V91.4H175.288V89.4ZM149.183 89.9709C147.489 86.4031 145.104 83.6452 142.021 81.7412L140.971 83.4428C143.69 85.1228 145.829 87.5703 147.377 90.8291L149.183 89.9709ZM142.033 81.7483C139.037 79.8418 135.56 78.904 131.64 78.904V80.904C135.229 80.904 138.323 81.7581 140.959 83.4357L142.033 81.7483ZM131.64 78.904C125.563 78.904 120.623 81.1097 116.921 85.5343L118.455 86.8177C121.75 82.8796 126.112 80.904 131.64 80.904V78.904ZM116.92 85.5358C113.317 89.8591 111.568 95.6125 111.568 102.688H113.568C113.568 95.9395 115.232 90.6849 118.456 86.8162L116.92 85.5358ZM111.568 102.688C111.568 109.847 113.316 115.681 116.913 120.088L118.463 118.824C115.234 114.868 113.568 109.524 113.568 102.688H111.568ZM116.928 120.105C120.632 124.443 125.57 126.6 131.64 126.6V124.6C126.104 124.6 121.741 122.661 118.448 118.807L116.928 120.105ZM131.64 126.6C135.56 126.6 139.037 125.662 142.033 123.756L140.959 122.068C138.323 123.746 135.229 124.6 131.64 124.6V126.6ZM142.021 123.763C145.104 121.859 147.489 119.101 149.183 115.533L147.377 114.675C145.829 117.934 143.69 120.381 140.971 122.061L142.021 123.763ZM148.28 116.104H175.288V114.104H148.28V116.104ZM174.31 114.894C172.136 125.011 167.303 132.992 159.821 138.895L161.059 140.465C168.937 134.25 174.002 125.847 176.266 115.314L174.31 114.894ZM159.826 138.891C152.348 144.707 143.102 147.64 132.024 147.64V149.64C143.474 149.64 153.172 146.6 161.054 140.469L159.826 138.891ZM132.024 147.64C123.298 147.64 115.62 145.754 108.962 142.008L107.982 143.752C114.977 147.686 123.001 149.64 132.024 149.64V147.64ZM108.97 142.013C102.304 138.18 97.145 132.896 93.4787 126.147L91.7213 127.101C95.5643 134.176 100.987 139.729 107.974 143.747L108.97 142.013ZM93.4856 126.16C89.901 119.324 88.096 111.508 88.096 102.688H86.096C86.096 111.788 87.9604 119.93 91.7144 127.088L93.4856 126.16ZM187.04 92.576L186.143 92.1343L186.137 92.1455L187.04 92.576ZM198.048 79.776L197.511 78.9323L197.504 78.9368L198.048 79.776ZM226.464 78.24L225.984 79.1171L225.984 79.1171L226.464 78.24ZM234.784 86.176L233.923 86.684L235.784 89.8402V86.176H234.784ZM234.784 76.192V75.192H233.784V76.192H234.784ZM259.872 76.192H260.872V75.192H259.872V76.192ZM259.872 148V149H260.872V148H259.872ZM234.784 148H233.784V149H234.784V148ZM234.784 138.016H235.784V134.352L233.923 137.508L234.784 138.016ZM226.336 145.952L225.864 145.07L225.856 145.075L226.336 145.952ZM198.048 144.416L197.504 145.255L197.511 145.26L198.048 144.416ZM187.04 131.616L186.135 132.041L186.139 132.049L186.143 132.058L187.04 131.616ZM230.944 101.152L230.214 101.835L230.22 101.841L230.225 101.847L230.944 101.152ZM212.384 101.152L213.103 101.847L213.109 101.841L213.114 101.835L212.384 101.152ZM212.384 123.04L211.643 123.712L211.648 123.717L211.654 123.723L212.384 123.04ZM230.944 123.04L230.225 122.345L230.22 122.351L230.214 122.357L230.944 123.04ZM184.072 112.032C184.072 104.726 185.373 98.3936 187.943 93.0065L186.137 92.1455C183.416 97.8517 182.072 104.49 182.072 112.032H184.072ZM187.937 93.0177C190.598 87.6121 194.154 83.4917 198.592 80.6151L197.504 78.9368C192.726 82.0336 188.943 86.4466 186.143 92.1343L187.937 93.0177ZM198.585 80.6197C203.113 77.738 208.131 76.296 213.664 76.296V74.296C207.762 74.296 202.37 75.8406 197.511 78.9323L198.585 80.6197ZM213.664 76.296C218.481 76.296 222.575 77.2504 225.984 79.1171L226.944 77.3629C223.185 75.3042 218.746 74.296 213.664 74.296V76.296ZM225.984 79.1171C229.419 80.9985 232.057 83.5201 233.923 86.684L235.645 85.668C233.586 82.1759 230.677 79.4069 226.944 77.3629L225.984 79.1171ZM235.784 86.176V76.192H233.784V86.176H235.784ZM234.784 77.192H259.872V75.192H234.784V77.192ZM258.872 76.192V148H260.872V76.192H258.872ZM259.872 147H234.784V149H259.872V147ZM235.784 148V138.016H233.784V148H235.784ZM233.923 137.508C232.06 140.666 229.385 143.187 225.864 145.07L226.808 146.834C230.626 144.792 233.582 142.022 235.645 138.524L233.923 137.508ZM225.856 145.075C222.445 146.943 218.392 147.896 213.664 147.896V149.896C218.664 149.896 223.059 148.886 226.816 146.829L225.856 145.075ZM213.664 147.896C208.131 147.896 203.113 146.454 198.585 143.572L197.511 145.26C202.37 148.351 207.762 149.896 213.664 149.896V147.896ZM198.592 143.577C194.154 140.7 190.598 136.58 187.937 131.174L186.143 132.058C188.943 137.745 192.726 142.158 197.504 145.255L198.592 143.577ZM187.945 131.191C185.373 125.715 184.072 119.337 184.072 112.032H182.072C182.072 119.575 183.416 126.253 186.135 132.041L187.945 131.191ZM235.784 112.032C235.784 107.233 234.446 103.333 231.663 100.457L230.225 101.847C232.562 104.262 233.784 107.615 233.784 112.032H235.784ZM231.674 100.469C229.008 97.6184 225.67 96.184 221.728 96.184V98.184C225.125 98.184 227.931 99.3949 230.214 101.835L231.674 100.469ZM221.728 96.184C217.708 96.184 214.325 97.6132 211.654 100.469L213.114 101.835C215.392 99.4001 218.239 98.184 221.728 98.184V96.184ZM211.665 100.457C208.959 103.257 207.672 107.164 207.672 112.032H209.672C209.672 107.513 210.86 104.167 213.103 101.847L211.665 100.457ZM207.672 112.032C207.672 116.824 208.963 120.754 211.643 123.712L213.125 122.368C210.856 119.865 209.672 116.456 209.672 112.032H207.672ZM211.654 123.723C214.325 126.579 217.708 128.008 221.728 128.008V126.008C218.239 126.008 215.392 124.792 213.114 122.357L211.654 123.723ZM221.728 128.008C225.67 128.008 229.008 126.574 231.674 123.723L230.214 122.357C227.931 124.797 225.125 126.008 221.728 126.008V128.008ZM231.663 123.735C234.449 120.856 235.784 116.91 235.784 112.032H233.784C233.784 116.54 232.559 119.933 230.225 122.345L231.663 123.735ZM316.536 126.624H317.536V125.624H316.536V126.624ZM316.536 148V149H317.536V148H316.536ZM278.136 97.056H279.136V96.056H278.136V97.056ZM269.304 97.056H268.304V98.056H269.304V97.056ZM269.304 76.192V75.192H268.304V76.192H269.304ZM278.136 76.192V77.192H279.136V76.192H278.136ZM278.136 58.784V57.784H277.136V58.784H278.136ZM303.352 58.784H304.352V57.784H303.352V58.784ZM303.352 76.192H302.352V77.192H303.352V76.192ZM316.408 76.192H317.408V75.192H316.408V76.192ZM316.408 97.056V98.056H317.408V97.056H316.408ZM303.352 97.056V96.056H302.352V97.056H303.352ZM304.632 125.344L303.925 126.051L303.942 126.068L303.959 126.084L304.632 125.344ZM315.536 126.624V148H317.536V126.624H315.536ZM316.536 147H305.656V149H316.536V147ZM305.656 147C296.634 147 290.052 144.766 285.72 140.474C281.389 136.183 279.136 129.667 279.136 120.736H277.136C277.136 129.981 279.47 137.097 284.312 141.894C289.153 146.69 296.331 149 305.656 149V147ZM279.136 120.736V97.056H277.136V120.736H279.136ZM278.136 96.056H269.304V98.056H278.136V96.056ZM270.304 97.056V76.192H268.304V97.056H270.304ZM269.304 77.192H278.136V75.192H269.304V77.192ZM279.136 76.192V58.784H277.136V76.192H279.136ZM278.136 59.784H303.352V57.784H278.136V59.784ZM302.352 58.784V76.192H304.352V58.784H302.352ZM303.352 77.192H316.408V75.192H303.352V77.192ZM315.408 76.192V97.056H317.408V76.192H315.408ZM316.408 96.056H303.352V98.056H316.408V96.056ZM302.352 97.056V121.12H304.352V97.056H302.352ZM302.352 121.12C302.352 123.189 302.796 124.922 303.925 126.051L305.339 124.637C304.762 124.059 304.352 122.976 304.352 121.12H302.352ZM303.959 126.084C305.172 127.187 307.015 127.624 309.24 127.624V125.624C307.198 125.624 305.969 125.208 305.305 124.604L303.959 126.084ZM309.24 127.624H316.536V125.624H309.24V127.624ZM396.267 117.152V118.152H397.145L397.259 117.281L396.267 117.152ZM348.779 117.152V116.152H347.712L347.781 117.217L348.779 117.152ZM351.979 125.984L351.256 126.675L351.272 126.691L351.288 126.707L351.979 125.984ZM368.363 123.168V122.168H367.732L367.461 122.737L368.363 123.168ZM395.115 123.168L396.091 123.387L396.364 122.168H395.115V123.168ZM388.587 136.48L387.816 135.843L387.815 135.845L388.587 136.48ZM376.555 145.568L376.97 146.478L376.97 146.478L376.555 145.568ZM341.483 144.416L341.003 145.293L341.009 145.296L341.483 144.416ZM328.555 131.616L327.68 132.101L327.686 132.111L328.555 131.616ZM328.555 92.576L329.427 93.0663L329.43 93.0605L328.555 92.576ZM341.355 79.776L340.881 78.8955L340.875 78.8986L341.355 79.776ZM379.243 79.648L379.712 78.7649L379.712 78.7649L379.243 79.648ZM392.043 92.192L391.171 92.6823L391.175 92.6881L392.043 92.192ZM371.051 104.992V105.992H372.051V104.992H371.051ZM367.979 97.824L367.32 98.5766L367.33 98.5845L367.339 98.5922L367.979 97.824ZM352.747 97.696L353.384 98.467L353.394 98.4589L353.403 98.4506L352.747 97.696ZM348.907 104.992L347.924 104.811L347.706 105.992H348.907V104.992ZM395.651 111.264C395.651 113.183 395.526 115.103 395.275 117.023L397.259 117.281C397.52 115.276 397.651 113.27 397.651 111.264H395.651ZM396.267 116.152H348.779V118.152H396.267V116.152ZM347.781 117.217C348.046 121.274 349.157 124.481 351.256 126.675L352.702 125.293C351.046 123.562 350.024 120.88 349.777 117.087L347.781 117.217ZM351.288 126.707C353.456 128.78 356.187 129.8 359.403 129.8V127.8C356.646 127.8 354.427 126.942 352.67 125.261L351.288 126.707ZM359.403 129.8C361.647 129.8 363.631 129.295 365.311 128.239C366.992 127.182 368.303 125.616 369.265 123.599L367.461 122.737C366.631 124.475 365.553 125.724 364.247 126.545C362.94 127.367 361.341 127.8 359.403 127.8V129.8ZM368.363 124.168H395.115V122.168H368.363V124.168ZM394.139 122.949C393.064 127.744 390.959 132.039 387.816 135.843L389.358 137.117C392.7 133.071 394.947 128.49 396.091 123.387L394.139 122.949ZM387.815 135.845C384.761 139.559 380.876 142.498 376.14 144.658L376.97 146.478C381.962 144.201 386.098 141.081 389.359 137.115L387.815 135.845ZM376.14 144.658C371.419 146.812 366.186 147.896 360.427 147.896V149.896C366.444 149.896 371.963 148.762 376.97 146.478L376.14 144.658ZM360.427 147.896C353.489 147.896 347.341 146.434 341.957 143.536L341.009 145.296C346.719 148.371 353.2 149.896 360.427 149.896V147.896ZM341.963 143.539C336.668 140.643 332.492 136.511 329.424 131.121L327.686 132.111C330.933 137.814 335.375 142.215 341.003 145.293L341.963 143.539ZM329.43 131.131C326.454 125.758 324.947 119.403 324.947 112.032H322.947C322.947 119.68 324.512 126.38 327.68 132.1L329.43 131.131ZM324.947 112.032C324.947 104.66 326.454 98.3508 329.427 93.0663L327.683 92.0857C324.512 97.7239 322.947 104.385 322.947 112.032H324.947ZM329.43 93.0605C332.412 87.6763 336.543 83.5474 341.835 80.6534L340.875 78.8986C335.244 81.978 330.842 86.3824 327.68 92.0915L329.43 93.0605ZM341.829 80.6565C347.211 77.7585 353.401 76.296 360.427 76.296V74.296C353.117 74.296 346.592 75.8201 340.881 78.8955L341.829 80.6565ZM360.427 76.296C367.37 76.296 373.477 77.717 378.774 80.5311L379.712 78.7649C374.087 75.7763 367.649 74.296 360.427 74.296V76.296ZM378.774 80.5311C384.064 83.3414 388.192 87.3853 391.171 92.6823L392.915 91.7017C389.75 86.076 385.345 81.7572 379.712 78.7649L378.774 80.5311ZM391.175 92.6881C394.146 97.8872 395.651 104.067 395.651 111.264H397.651C397.651 103.784 396.084 97.2488 392.911 91.6959L391.175 92.6881ZM372.051 104.992C372.051 101.674 370.931 98.9826 368.619 97.0558L367.339 98.5922C369.123 100.079 370.051 102.166 370.051 104.992H372.051ZM368.638 97.0714C366.384 95.0992 363.58 94.136 360.299 94.136V96.136C363.162 96.136 365.478 96.9648 367.32 98.5766L368.638 97.0714ZM360.299 94.136C357.032 94.136 354.267 95.0487 352.091 96.9414L353.403 98.4506C355.152 96.93 357.422 96.136 360.299 96.136V94.136ZM352.11 96.925C349.918 98.7357 348.551 101.406 347.924 104.811L349.89 105.173C350.458 102.092 351.65 99.899 353.384 98.467L352.11 96.925ZM348.907 105.992H371.051V103.992H348.907V105.992ZM446.086 78.24L445.606 79.1171L445.614 79.1218L446.086 78.24ZM454.534 86.176L453.673 86.684L455.534 89.8402V86.176H454.534ZM454.534 76.192V75.192H453.534V76.192H454.534ZM479.622 76.192H480.622V75.192H479.622V76.192ZM475.782 165.408L474.879 164.978L474.877 164.984L475.782 165.408ZM463.75 178.464L463.239 177.604L463.234 177.608L463.75 178.464ZM416.646 175.52L417.262 174.732L417.262 174.732L416.646 175.52ZM405.254 154.272V153.272H404.144L404.259 154.376L405.254 154.272ZM429.958 154.272L430.934 154.055L430.76 153.272H429.958V154.272ZM433.798 159.648L433.268 160.496L433.268 160.496L433.798 159.648ZM454.534 138.016H455.534V134.352L453.673 137.508L454.534 138.016ZM446.086 145.952L445.614 145.07L445.606 145.075L446.086 145.952ZM417.798 144.416L417.254 145.255L417.261 145.26L417.798 144.416ZM406.79 131.616L405.885 132.041L405.889 132.049L405.893 132.058L406.79 131.616ZM406.79 92.576L405.893 92.1343L405.887 92.1455L406.79 92.576ZM417.798 79.776L417.261 78.9323L417.254 78.9368L417.798 79.776ZM450.694 101.152L449.964 101.835L449.97 101.841L449.975 101.847L450.694 101.152ZM432.134 101.152L432.853 101.847L432.859 101.841L432.864 101.835L432.134 101.152ZM432.134 123.04L431.393 123.712L431.398 123.717L431.404 123.723L432.134 123.04ZM450.694 123.04L449.975 122.345L449.97 122.351L449.964 122.357L450.694 123.04ZM433.414 76.296C438.142 76.296 442.195 77.2491 445.606 79.1171L446.566 77.3629C442.809 75.3055 438.414 74.296 433.414 74.296V76.296ZM445.614 79.1218C449.135 81.0049 451.81 83.5261 453.673 86.684L455.395 85.668C453.332 82.1699 450.376 79.4005 446.558 77.3582L445.614 79.1218ZM455.534 86.176V76.192H453.534V86.176H455.534ZM454.534 77.192H479.622V75.192H454.534V77.192ZM478.622 76.192V147.232H480.622V76.192H478.622ZM478.622 147.232C478.622 153.844 477.367 159.753 474.879 164.978L476.685 165.838C479.317 160.311 480.622 154.102 480.622 147.232H478.622ZM474.877 164.984C472.406 170.254 468.538 174.458 463.239 177.604L464.261 179.324C469.885 175.985 474.038 171.485 476.687 165.832L474.877 164.984ZM463.234 177.608C458.056 180.731 451.422 182.328 443.27 182.328V184.328C451.673 184.328 458.692 182.682 464.266 179.32L463.234 177.608ZM443.27 182.328C432.33 182.328 423.694 179.762 417.262 174.732L416.03 176.308C422.91 181.688 432.023 184.328 443.27 184.328V182.328ZM417.262 174.732C410.835 169.706 407.161 162.878 406.249 154.168L404.259 154.376C405.224 163.586 409.145 170.923 416.03 176.308L417.262 174.732ZM405.254 155.272H429.958V153.272H405.254V155.272ZM428.982 154.489C429.553 157.061 430.999 159.078 433.268 160.496L434.328 158.8C432.501 157.658 431.387 156.091 430.934 154.055L428.982 154.489ZM433.268 160.496C435.521 161.904 438.366 162.568 441.734 162.568V160.568C438.616 160.568 436.171 159.952 434.328 158.8L433.268 160.496ZM441.734 162.568C446.186 162.568 449.699 161.316 452.08 158.65C454.441 156.005 455.534 152.139 455.534 147.232H453.534C453.534 151.883 452.493 155.184 450.588 157.318C448.702 159.43 445.815 160.568 441.734 160.568V162.568ZM455.534 147.232V138.016H453.534V147.232H455.534ZM453.673 137.508C451.81 140.666 449.135 143.187 445.614 145.07L446.558 146.834C450.376 144.792 453.332 142.022 455.395 138.524L453.673 137.508ZM445.606 145.075C442.195 146.943 438.142 147.896 433.414 147.896V149.896C438.414 149.896 442.809 148.886 446.566 146.829L445.606 145.075ZM433.414 147.896C427.881 147.896 422.863 146.454 418.335 143.572L417.261 145.26C422.12 148.351 427.512 149.896 433.414 149.896V147.896ZM418.342 143.577C413.904 140.7 410.348 136.58 407.687 131.174L405.893 132.058C408.693 137.745 412.476 142.158 417.254 145.255L418.342 143.577ZM407.695 131.191C405.123 125.715 403.822 119.337 403.822 112.032H401.822C401.822 119.575 403.166 126.253 405.885 132.041L407.695 131.191ZM403.822 112.032C403.822 104.726 405.123 98.3936 407.693 93.0065L405.887 92.1455C403.166 97.8517 401.822 104.49 401.822 112.032H403.822ZM407.687 93.0177C410.348 87.6121 413.904 83.4917 418.342 80.6151L417.254 78.9368C412.476 82.0336 408.693 86.4466 405.893 92.1343L407.687 93.0177ZM418.335 80.6197C422.863 77.738 427.881 76.296 433.414 76.296V74.296C427.512 74.296 422.12 75.8406 417.261 78.9323L418.335 80.6197ZM455.534 112.032C455.534 107.233 454.196 103.333 451.413 100.457L449.975 101.847C452.312 104.262 453.534 107.615 453.534 112.032H455.534ZM451.424 100.469C448.758 97.6184 445.42 96.184 441.478 96.184V98.184C444.875 98.184 447.681 99.3949 449.964 101.835L451.424 100.469ZM441.478 96.184C437.458 96.184 434.075 97.6132 431.404 100.469L432.864 101.835C435.142 99.4001 437.989 98.184 441.478 98.184V96.184ZM431.415 100.457C428.709 103.257 427.422 107.164 427.422 112.032H429.422C429.422 107.513 430.61 104.167 432.853 101.847L431.415 100.457ZM427.422 112.032C427.422 116.824 428.713 120.754 431.393 123.712L432.875 122.368C430.606 119.865 429.422 116.456 429.422 112.032H427.422ZM431.404 123.723C434.075 126.579 437.458 128.008 441.478 128.008V126.008C437.989 126.008 435.142 124.792 432.864 122.357L431.404 123.723ZM441.478 128.008C445.42 128.008 448.758 126.574 451.424 123.723L449.964 122.357C447.681 124.797 444.875 126.008 441.478 126.008V128.008ZM451.413 123.735C454.199 120.856 455.534 116.91 455.534 112.032H453.534C453.534 116.54 452.309 119.933 449.975 122.345L451.413 123.735ZM507.998 144.416L507.529 145.299L507.535 145.302L507.998 144.416ZM494.686 131.616L495.549 131.111L495.549 131.111L494.686 131.616ZM494.686 92.576L493.828 92.0615L493.823 92.0713L494.686 92.576ZM508.126 79.776L507.663 78.8896L507.657 78.8925L508.126 79.776ZM546.654 79.776L546.185 80.6595L546.191 80.6623L546.654 79.776ZM560.094 92.576L559.231 93.0807L559.237 93.0905L560.094 92.576ZM560.094 131.616L559.233 131.107L559.231 131.111L560.094 131.616ZM546.654 144.416L546.191 143.53L546.654 144.416ZM536.03 123.296L535.288 122.626L535.287 122.627L536.03 123.296ZM536.03 100.896L535.287 101.565L535.293 101.572L535.299 101.578L536.03 100.896ZM518.75 123.296L517.994 123.951L517.994 123.951L518.75 123.296ZM527.326 147.896C520.301 147.896 514.02 146.434 508.461 143.53L507.535 145.302C513.411 148.372 520.015 149.896 527.326 149.896V147.896ZM508.467 143.533C503 140.634 498.699 136.499 495.549 131.111L493.823 132.121C497.158 137.827 501.732 142.225 507.529 145.299L508.467 143.533ZM495.549 131.111C492.41 125.742 490.822 119.394 490.822 112.032H488.822C488.822 119.688 490.476 126.397 493.823 132.121L495.549 131.111ZM490.822 112.032C490.822 104.757 492.409 98.4518 495.549 93.0807L493.823 92.0713C490.477 97.7936 488.822 104.459 488.822 112.032H490.822ZM495.543 93.0905C498.779 87.6975 503.126 83.5595 508.595 80.6595L507.657 78.8925C501.862 81.9658 497.249 86.3611 493.829 92.0615L495.543 93.0905ZM508.589 80.6623C514.148 77.7583 520.429 76.296 527.454 76.296V74.296C520.143 74.296 513.539 75.8203 507.663 78.8896L508.589 80.6623ZM527.454 76.296C534.479 76.296 540.715 77.7584 546.186 80.6595L547.123 78.8925C541.329 75.8202 534.765 74.296 527.454 74.296V76.296ZM546.191 80.6623C551.742 83.5623 556.083 87.697 559.231 93.0807L560.957 92.0713C557.619 86.3616 553 81.963 547.117 78.8896L546.191 80.6623ZM559.237 93.0905C562.458 98.4599 564.086 104.762 564.086 112.032H566.086C566.086 104.454 564.386 97.7854 560.951 92.0615L559.237 93.0905ZM564.086 112.032C564.086 119.302 562.458 125.649 559.233 131.107L560.955 132.125C564.386 126.319 566.086 119.61 566.086 112.032H564.086ZM559.231 131.111C556.083 136.495 551.742 140.63 546.191 143.53L547.117 145.302C553 142.229 557.619 137.83 560.957 132.121L559.231 131.111ZM546.191 143.53C540.632 146.434 534.351 147.896 527.326 147.896V149.896C534.637 149.896 541.241 148.372 547.117 145.302L546.191 143.53ZM527.326 128.136C531.103 128.136 534.276 126.739 536.773 123.965L535.287 122.627C533.176 124.973 530.546 126.136 527.326 126.136V128.136ZM536.772 123.966C539.38 121.079 540.614 117.053 540.614 112.032H538.614C538.614 116.739 537.459 120.222 535.288 122.626L536.772 123.966ZM540.614 112.032C540.614 107.014 539.381 103.02 536.761 100.214L535.299 101.578C537.458 103.891 538.614 107.322 538.614 112.032H540.614ZM536.773 100.227C534.282 97.4585 531.154 96.056 527.454 96.056V98.056C530.581 98.056 533.17 99.2135 535.287 101.565L536.773 100.227ZM527.454 96.056C523.754 96.056 520.626 97.4585 518.135 100.227L519.621 101.565C521.738 99.2135 524.327 98.056 527.454 98.056V96.056ZM518.135 100.227C515.608 103.034 514.422 107.022 514.422 112.032H516.422C516.422 107.314 517.54 103.878 519.621 101.565L518.135 100.227ZM514.422 112.032C514.422 117.113 515.559 121.141 517.994 123.951L519.506 122.641C517.503 120.331 516.422 116.849 516.422 112.032H514.422ZM517.994 123.951C520.41 126.738 523.548 128.136 527.326 128.136V126.136C524.106 126.136 521.527 124.974 519.506 122.641L517.994 123.951ZM600.381 88.864H599.381V92.0837L601.205 89.4305L600.381 88.864ZM623.549 75.552H624.549V74.552H623.549V75.552ZM623.549 102.304V103.304H624.549V102.304H623.549ZM604.349 105.504L604.977 106.282L604.977 106.282L604.349 105.504ZM600.381 148V149H601.381V148H600.381ZM575.293 148H574.293V149H575.293V148ZM575.293 76.192V75.192H574.293V76.192H575.293ZM600.381 76.192H601.381V75.192H600.381V76.192ZM601.205 89.4305C603.945 85.4456 607.254 82.3059 611.133 79.9951L610.109 78.2769C605.967 80.7448 602.449 84.0904 599.557 88.2975L601.205 89.4305ZM611.133 79.9951C614.991 77.6967 619.124 76.552 623.549 76.552V74.552C618.758 74.552 614.273 75.7966 610.109 78.2769L611.133 79.9951ZM622.549 75.552V102.304H624.549V75.552H622.549ZM623.549 101.304H616.509V103.304H623.549V101.304ZM616.509 101.304C610.949 101.304 606.624 102.385 603.721 104.726L604.977 106.282C607.365 104.357 611.147 103.304 616.509 103.304V101.304ZM603.721 104.726C600.734 107.134 599.381 111.217 599.381 116.64H601.381C601.381 111.482 602.673 108.14 604.977 106.282L603.721 104.726ZM599.381 116.64V148H601.381V116.64H599.381ZM600.381 147H575.293V149H600.381V147ZM576.293 148V76.192H574.293V148H576.293ZM575.293 77.192H600.381V75.192H575.293V77.192ZM599.381 76.192V88.864H601.381V76.192H599.381ZM709.855 76.192L710.774 76.587L711.373 75.192H709.855V76.192ZM664.287 182.176V183.176H664.946L665.206 182.571L664.287 182.176ZM637.023 182.176L636.115 181.758L635.462 183.176H637.023V182.176ZM654.175 144.928L655.083 145.346L655.269 144.943L655.094 144.534L654.175 144.928ZM624.735 76.192V75.192H623.219L623.816 76.5857L624.735 76.192ZM652.639 76.192L653.577 75.8441L653.335 75.192H652.639V76.192ZM667.743 116.896L666.805 117.244L667.759 119.814L668.684 117.233L667.743 116.896ZM682.335 76.192V75.192H681.631L681.394 75.8545L682.335 76.192ZM708.936 75.797L663.368 181.781L665.206 182.571L710.774 76.587L708.936 75.797ZM664.287 181.176H637.023V183.176H664.287V181.176ZM637.931 182.594L655.083 145.346L653.267 144.51L636.115 181.758L637.931 182.594ZM655.094 144.534L625.654 75.7983L623.816 76.5857L653.256 145.322L655.094 144.534ZM624.735 77.192H652.639V75.192H624.735V77.192ZM651.701 76.5399L666.805 117.244L668.681 116.548L653.577 75.8441L651.701 76.5399ZM668.684 117.233L683.276 76.5295L681.394 75.8545L666.802 116.559L668.684 117.233ZM682.335 77.192H709.855V75.192H682.335V77.192Z" fill="black" mask="url(#path-1-outside-1_125_45)"/>
<mask id="path-3-outside-2_125_45" maskUnits="userSpaceOnUse" x="92" y="61" width="626" height="130" fill="black">
<rect fill="white" x="92" y="61" width="626" height="130"/>
<path d="M93.096 108.688C93.096 99.8133 94.9307 91.92 98.6 85.008C102.355 78.0107 107.645 72.592 114.472 68.752C121.299 64.8267 129.149 62.864 138.024 62.864C149.288 62.864 158.76 65.8933 166.44 71.952C174.12 77.9253 179.069 86.0747 181.288 96.4H154.28C152.659 92.9867 150.397 90.384 147.496 88.592C144.68 86.8 141.395 85.904 137.64 85.904C131.837 85.904 127.187 87.9947 123.688 92.176C120.275 96.272 118.568 101.776 118.568 108.688C118.568 115.685 120.275 121.275 123.688 125.456C127.187 129.552 131.837 131.6 137.64 131.6C141.395 131.6 144.68 130.704 147.496 128.912C150.397 127.12 152.659 124.517 154.28 121.104H181.288C179.069 131.429 174.12 139.621 166.44 145.68C158.76 151.653 149.288 154.64 138.024 154.64C129.149 154.64 121.299 152.72 114.472 148.88C107.645 144.955 102.355 139.536 98.6 132.624C94.9307 125.627 93.096 117.648 93.096 108.688ZM189.072 118.032C189.072 110.608 190.395 104.123 193.04 98.576C195.771 93.0293 199.44 88.7627 204.048 85.776C208.741 82.7893 213.947 81.296 219.664 81.296C224.613 81.296 228.88 82.2773 232.464 84.24C236.048 86.2027 238.821 88.848 240.784 92.176V82.192H265.872V154H240.784V144.016C238.821 147.344 236.005 149.989 232.336 151.952C228.752 153.915 224.528 154.896 219.664 154.896C213.947 154.896 208.741 153.403 204.048 150.416C199.44 147.429 195.771 143.163 193.04 137.616C190.395 131.984 189.072 125.456 189.072 118.032ZM240.784 118.032C240.784 113.424 239.504 109.797 236.944 107.152C234.469 104.507 231.397 103.184 227.728 103.184C223.973 103.184 220.859 104.507 218.384 107.152C215.909 109.712 214.672 113.339 214.672 118.032C214.672 122.64 215.909 126.309 218.384 129.04C220.859 131.685 223.973 133.008 227.728 133.008C231.397 133.008 234.469 131.685 236.944 129.04C239.504 126.395 240.784 122.725 240.784 118.032ZM322.536 132.624V154H311.656C293.309 154 284.136 144.912 284.136 126.736V103.056H275.304V82.192H284.136V64.784H309.352V82.192H322.408V103.056H309.352V127.12C309.352 129.083 309.779 130.491 310.632 131.344C311.571 132.197 313.107 132.624 315.24 132.624H322.536ZM402.651 117.264C402.651 119.227 402.523 121.189 402.267 123.152H354.779C355.035 127.077 356.102 130.021 357.979 131.984C359.942 133.861 362.416 134.8 365.403 134.8C369.584 134.8 372.571 132.923 374.363 129.168H401.115C400.006 134.117 397.83 138.555 394.587 142.48C391.43 146.32 387.419 149.349 382.555 151.568C377.691 153.787 372.315 154.896 366.427 154.896C359.344 154.896 353.03 153.403 347.483 150.416C342.022 147.429 337.712 143.163 334.555 137.616C331.483 132.069 329.947 125.541 329.947 118.032C329.947 110.523 331.483 104.037 334.555 98.576C337.627 93.0293 341.894 88.7627 347.355 85.776C352.902 82.7893 359.259 81.296 366.427 81.296C373.51 81.296 379.782 82.7467 385.243 85.648C390.704 88.5493 394.971 92.7307 398.043 98.192C401.115 103.568 402.651 109.925 402.651 117.264ZM377.051 110.992C377.051 107.92 376.027 105.531 373.979 103.824C371.931 102.032 369.371 101.136 366.299 101.136C363.227 101.136 360.71 101.989 358.747 103.696C356.784 105.317 355.504 107.749 354.907 110.992H377.051ZM439.414 81.296C444.278 81.296 448.502 82.2773 452.086 84.24C455.755 86.2027 458.571 88.848 460.534 92.176V82.192H485.622V153.232C485.622 159.973 484.342 166.032 481.782 171.408C479.222 176.869 475.211 181.221 469.75 184.464C464.374 187.707 457.547 189.328 449.27 189.328C438.177 189.328 429.302 186.725 422.646 181.52C415.99 176.315 412.193 169.232 411.254 160.272H435.958C436.47 162.576 437.75 164.368 439.798 165.648C441.846 166.928 444.491 167.568 447.734 167.568C456.267 167.568 460.534 162.789 460.534 153.232V144.016C458.571 147.344 455.755 149.989 452.086 151.952C448.502 153.915 444.278 154.896 439.414 154.896C433.697 154.896 428.491 153.403 423.798 150.416C419.19 147.429 415.521 143.163 412.79 137.616C410.145 131.984 408.822 125.456 408.822 118.032C408.822 110.608 410.145 104.123 412.79 98.576C415.521 93.0293 419.19 88.7627 423.798 85.776C428.491 82.7893 433.697 81.296 439.414 81.296ZM460.534 118.032C460.534 113.424 459.254 109.797 456.694 107.152C454.219 104.507 451.147 103.184 447.478 103.184C443.723 103.184 440.609 104.507 438.134 107.152C435.659 109.712 434.422 113.339 434.422 118.032C434.422 122.64 435.659 126.309 438.134 129.04C440.609 131.685 443.723 133.008 447.478 133.008C451.147 133.008 454.219 131.685 456.694 129.04C459.254 126.395 460.534 122.725 460.534 118.032ZM533.326 154.896C526.158 154.896 519.715 153.403 513.998 150.416C508.366 147.429 503.929 143.163 500.686 137.616C497.443 132.069 495.822 125.541 495.822 118.032C495.822 110.608 497.443 104.123 500.686 98.576C504.014 93.0293 508.494 88.7627 514.126 85.776C519.843 82.7893 526.286 81.296 533.454 81.296C540.622 81.296 547.022 82.7893 552.654 85.776C558.371 88.7627 562.851 93.0293 566.094 98.576C569.422 104.123 571.086 110.608 571.086 118.032C571.086 125.456 569.422 131.984 566.094 137.616C562.851 143.163 558.371 147.429 552.654 150.416C546.937 153.403 540.494 154.896 533.326 154.896ZM533.326 133.136C536.825 133.136 539.726 131.856 542.03 129.296C544.419 126.651 545.614 122.896 545.614 118.032C545.614 113.168 544.419 109.456 542.03 106.896C539.726 104.336 536.867 103.056 533.454 103.056C530.041 103.056 527.182 104.336 524.878 106.896C522.574 109.456 521.422 113.168 521.422 118.032C521.422 122.981 522.531 126.736 524.75 129.296C526.969 131.856 529.827 133.136 533.326 133.136ZM606.381 94.864C609.197 90.768 612.61 87.5253 616.621 85.136C620.632 82.7467 624.941 81.552 629.549 81.552V108.304H622.509C617.048 108.304 612.994 109.371 610.349 111.504C607.704 113.637 606.381 117.349 606.381 122.64V154H581.293V82.192H606.381V94.864ZM715.855 82.192L670.287 188.176H643.023L660.175 150.928L630.735 82.192H658.639L673.743 122.896L688.335 82.192H715.855Z"/>
</mask>
<path d="M93.096 108.688C93.096 99.8133 94.9307 91.92 98.6 85.008C102.355 78.0107 107.645 72.592 114.472 68.752C121.299 64.8267 129.149 62.864 138.024 62.864C149.288 62.864 158.76 65.8933 166.44 71.952C174.12 77.9253 179.069 86.0747 181.288 96.4H154.28C152.659 92.9867 150.397 90.384 147.496 88.592C144.68 86.8 141.395 85.904 137.64 85.904C131.837 85.904 127.187 87.9947 123.688 92.176C120.275 96.272 118.568 101.776 118.568 108.688C118.568 115.685 120.275 121.275 123.688 125.456C127.187 129.552 131.837 131.6 137.64 131.6C141.395 131.6 144.68 130.704 147.496 128.912C150.397 127.12 152.659 124.517 154.28 121.104H181.288C179.069 131.429 174.12 139.621 166.44 145.68C158.76 151.653 149.288 154.64 138.024 154.64C129.149 154.64 121.299 152.72 114.472 148.88C107.645 144.955 102.355 139.536 98.6 132.624C94.9307 125.627 93.096 117.648 93.096 108.688ZM189.072 118.032C189.072 110.608 190.395 104.123 193.04 98.576C195.771 93.0293 199.44 88.7627 204.048 85.776C208.741 82.7893 213.947 81.296 219.664 81.296C224.613 81.296 228.88 82.2773 232.464 84.24C236.048 86.2027 238.821 88.848 240.784 92.176V82.192H265.872V154H240.784V144.016C238.821 147.344 236.005 149.989 232.336 151.952C228.752 153.915 224.528 154.896 219.664 154.896C213.947 154.896 208.741 153.403 204.048 150.416C199.44 147.429 195.771 143.163 193.04 137.616C190.395 131.984 189.072 125.456 189.072 118.032ZM240.784 118.032C240.784 113.424 239.504 109.797 236.944 107.152C234.469 104.507 231.397 103.184 227.728 103.184C223.973 103.184 220.859 104.507 218.384 107.152C215.909 109.712 214.672 113.339 214.672 118.032C214.672 122.64 215.909 126.309 218.384 129.04C220.859 131.685 223.973 133.008 227.728 133.008C231.397 133.008 234.469 131.685 236.944 129.04C239.504 126.395 240.784 122.725 240.784 118.032ZM322.536 132.624V154H311.656C293.309 154 284.136 144.912 284.136 126.736V103.056H275.304V82.192H284.136V64.784H309.352V82.192H322.408V103.056H309.352V127.12C309.352 129.083 309.779 130.491 310.632 131.344C311.571 132.197 313.107 132.624 315.24 132.624H322.536ZM402.651 117.264C402.651 119.227 402.523 121.189 402.267 123.152H354.779C355.035 127.077 356.102 130.021 357.979 131.984C359.942 133.861 362.416 134.8 365.403 134.8C369.584 134.8 372.571 132.923 374.363 129.168H401.115C400.006 134.117 397.83 138.555 394.587 142.48C391.43 146.32 387.419 149.349 382.555 151.568C377.691 153.787 372.315 154.896 366.427 154.896C359.344 154.896 353.03 153.403 347.483 150.416C342.022 147.429 337.712 143.163 334.555 137.616C331.483 132.069 329.947 125.541 329.947 118.032C329.947 110.523 331.483 104.037 334.555 98.576C337.627 93.0293 341.894 88.7627 347.355 85.776C352.902 82.7893 359.259 81.296 366.427 81.296C373.51 81.296 379.782 82.7467 385.243 85.648C390.704 88.5493 394.971 92.7307 398.043 98.192C401.115 103.568 402.651 109.925 402.651 117.264ZM377.051 110.992C377.051 107.92 376.027 105.531 373.979 103.824C371.931 102.032 369.371 101.136 366.299 101.136C363.227 101.136 360.71 101.989 358.747 103.696C356.784 105.317 355.504 107.749 354.907 110.992H377.051ZM439.414 81.296C444.278 81.296 448.502 82.2773 452.086 84.24C455.755 86.2027 458.571 88.848 460.534 92.176V82.192H485.622V153.232C485.622 159.973 484.342 166.032 481.782 171.408C479.222 176.869 475.211 181.221 469.75 184.464C464.374 187.707 457.547 189.328 449.27 189.328C438.177 189.328 429.302 186.725 422.646 181.52C415.99 176.315 412.193 169.232 411.254 160.272H435.958C436.47 162.576 437.75 164.368 439.798 165.648C441.846 166.928 444.491 167.568 447.734 167.568C456.267 167.568 460.534 162.789 460.534 153.232V144.016C458.571 147.344 455.755 149.989 452.086 151.952C448.502 153.915 444.278 154.896 439.414 154.896C433.697 154.896 428.491 153.403 423.798 150.416C419.19 147.429 415.521 143.163 412.79 137.616C410.145 131.984 408.822 125.456 408.822 118.032C408.822 110.608 410.145 104.123 412.79 98.576C415.521 93.0293 419.19 88.7627 423.798 85.776C428.491 82.7893 433.697 81.296 439.414 81.296ZM460.534 118.032C460.534 113.424 459.254 109.797 456.694 107.152C454.219 104.507 451.147 103.184 447.478 103.184C443.723 103.184 440.609 104.507 438.134 107.152C435.659 109.712 434.422 113.339 434.422 118.032C434.422 122.64 435.659 126.309 438.134 129.04C440.609 131.685 443.723 133.008 447.478 133.008C451.147 133.008 454.219 131.685 456.694 129.04C459.254 126.395 460.534 122.725 460.534 118.032ZM533.326 154.896C526.158 154.896 519.715 153.403 513.998 150.416C508.366 147.429 503.929 143.163 500.686 137.616C497.443 132.069 495.822 125.541 495.822 118.032C495.822 110.608 497.443 104.123 500.686 98.576C504.014 93.0293 508.494 88.7627 514.126 85.776C519.843 82.7893 526.286 81.296 533.454 81.296C540.622 81.296 547.022 82.7893 552.654 85.776C558.371 88.7627 562.851 93.0293 566.094 98.576C569.422 104.123 571.086 110.608 571.086 118.032C571.086 125.456 569.422 131.984 566.094 137.616C562.851 143.163 558.371 147.429 552.654 150.416C546.937 153.403 540.494 154.896 533.326 154.896ZM533.326 133.136C536.825 133.136 539.726 131.856 542.03 129.296C544.419 126.651 545.614 122.896 545.614 118.032C545.614 113.168 544.419 109.456 542.03 106.896C539.726 104.336 536.867 103.056 533.454 103.056C530.041 103.056 527.182 104.336 524.878 106.896C522.574 109.456 521.422 113.168 521.422 118.032C521.422 122.981 522.531 126.736 524.75 129.296C526.969 131.856 529.827 133.136 533.326 133.136ZM606.381 94.864C609.197 90.768 612.61 87.5253 616.621 85.136C620.632 82.7467 624.941 81.552 629.549 81.552V108.304H622.509C617.048 108.304 612.994 109.371 610.349 111.504C607.704 113.637 606.381 117.349 606.381 122.64V154H581.293V82.192H606.381V94.864ZM715.855 82.192L670.287 188.176H643.023L660.175 150.928L630.735 82.192H658.639L673.743 122.896L688.335 82.192H715.855Z" fill="black"/>
<path d="M98.6 85.008L97.7188 84.5352L97.7167 84.5391L98.6 85.008ZM114.472 68.752L114.962 69.6236L114.97 69.6189L114.472 68.752ZM166.44 71.952L165.821 72.7371L165.826 72.7413L166.44 71.952ZM181.288 96.4V97.4H182.526L182.266 96.1899L181.288 96.4ZM154.28 96.4L153.377 96.8291L153.648 97.4H154.28V96.4ZM147.496 88.592L146.959 89.4357L146.971 89.4428L147.496 88.592ZM123.688 92.176L122.921 91.5343L122.92 91.5358L123.688 92.176ZM123.688 125.456L122.913 126.088L122.92 126.097L122.928 126.105L123.688 125.456ZM147.496 128.912L146.97 128.061L146.959 128.068L147.496 128.912ZM154.28 121.104V120.104H153.648L153.377 120.675L154.28 121.104ZM181.288 121.104L182.266 121.314L182.526 120.104H181.288V121.104ZM166.44 145.68L167.054 146.469L167.059 146.465L166.44 145.68ZM114.472 148.88L113.974 149.747L113.982 149.752L114.472 148.88ZM98.6 132.624L97.7144 133.088L97.7178 133.095L97.7213 133.101L98.6 132.624ZM94.096 108.688C94.096 99.9547 95.9003 92.2261 99.4833 85.4769L97.7167 84.5391C93.961 91.6139 92.096 99.672 92.096 108.688H94.096ZM99.4812 85.4808C103.147 78.6484 108.304 73.3691 114.962 69.6236L113.982 67.8804C106.987 71.8149 101.562 77.373 97.7188 84.5352L99.4812 85.4808ZM114.97 69.6189C121.627 65.7914 129.302 63.864 138.024 63.864V61.864C128.997 61.864 120.97 63.8619 113.974 67.8851L114.97 69.6189ZM138.024 63.864C149.099 63.864 158.343 66.8382 165.821 72.7371L167.059 71.1669C159.177 64.9484 149.477 61.864 138.024 61.864V63.864ZM165.826 72.7413C173.304 78.5576 178.137 86.4935 180.31 96.6101L182.266 96.1899C180.002 85.6558 174.936 77.293 167.054 71.1626L165.826 72.7413ZM181.288 95.4H154.28V97.4H181.288V95.4ZM155.183 95.9709C153.489 92.4031 151.104 89.6452 148.021 87.7412L146.971 89.4428C149.69 91.1228 151.829 93.5703 153.377 96.8291L155.183 95.9709ZM148.033 87.7483C145.037 85.8418 141.56 84.904 137.64 84.904V86.904C141.229 86.904 144.323 87.7581 146.959 89.4357L148.033 87.7483ZM137.64 84.904C131.563 84.904 126.623 87.1097 122.921 91.5343L124.455 92.8177C127.75 88.8796 132.112 86.904 137.64 86.904V84.904ZM122.92 91.5358C119.317 95.8591 117.568 101.613 117.568 108.688H119.568C119.568 101.939 121.232 96.6849 124.456 92.8162L122.92 91.5358ZM117.568 108.688C117.568 115.847 119.316 121.681 122.913 126.088L124.463 124.824C121.234 120.868 119.568 115.524 119.568 108.688H117.568ZM122.928 126.105C126.632 130.443 131.57 132.6 137.64 132.6V130.6C132.104 130.6 127.741 128.661 124.448 124.807L122.928 126.105ZM137.64 132.6C141.56 132.6 145.037 131.662 148.033 129.756L146.959 128.068C144.323 129.746 141.229 130.6 137.64 130.6V132.6ZM148.021 129.763C151.104 127.859 153.489 125.101 155.183 121.533L153.377 120.675C151.829 123.934 149.69 126.381 146.971 128.061L148.021 129.763ZM154.28 122.104H181.288V120.104H154.28V122.104ZM180.31 120.894C178.136 131.011 173.303 138.992 165.821 144.895L167.059 146.465C174.937 140.25 180.002 131.847 182.266 121.314L180.31 120.894ZM165.826 144.891C158.348 150.707 149.102 153.64 138.024 153.64V155.64C149.474 155.64 159.172 152.6 167.054 146.469L165.826 144.891ZM138.024 153.64C129.298 153.64 121.62 151.754 114.962 148.008L113.982 149.752C120.977 153.686 129.001 155.64 138.024 155.64V153.64ZM114.97 148.013C108.304 144.18 103.145 138.896 99.4787 132.147L97.7213 133.101C101.564 140.176 106.987 145.729 113.974 149.747L114.97 148.013ZM99.4856 132.16C95.901 125.324 94.096 117.508 94.096 108.688H92.096C92.096 117.788 93.9604 125.93 97.7144 133.088L99.4856 132.16ZM193.04 98.576L192.143 98.1343L192.137 98.1455L193.04 98.576ZM204.048 85.776L203.511 84.9323L203.504 84.9368L204.048 85.776ZM232.464 84.24L231.984 85.1171L231.984 85.1171L232.464 84.24ZM240.784 92.176L239.923 92.684L241.784 95.8402V92.176H240.784ZM240.784 82.192V81.192H239.784V82.192H240.784ZM265.872 82.192H266.872V81.192H265.872V82.192ZM265.872 154V155H266.872V154H265.872ZM240.784 154H239.784V155H240.784V154ZM240.784 144.016H241.784V140.352L239.923 143.508L240.784 144.016ZM232.336 151.952L231.864 151.07L231.856 151.075L232.336 151.952ZM204.048 150.416L203.504 151.255L203.511 151.26L204.048 150.416ZM193.04 137.616L192.135 138.041L192.139 138.049L192.143 138.058L193.04 137.616ZM236.944 107.152L236.214 107.835L236.22 107.841L236.225 107.847L236.944 107.152ZM218.384 107.152L219.103 107.847L219.109 107.841L219.114 107.835L218.384 107.152ZM218.384 129.04L217.643 129.712L217.648 129.717L217.654 129.723L218.384 129.04ZM236.944 129.04L236.225 128.345L236.22 128.351L236.214 128.357L236.944 129.04ZM190.072 118.032C190.072 110.726 191.373 104.394 193.943 99.0065L192.137 98.1455C189.416 103.852 188.072 110.49 188.072 118.032H190.072ZM193.937 99.0177C196.598 93.6121 200.154 89.4917 204.592 86.6151L203.504 84.9368C198.726 88.0336 194.943 92.4466 192.143 98.1343L193.937 99.0177ZM204.585 86.6197C209.113 83.738 214.131 82.296 219.664 82.296V80.296C213.762 80.296 208.37 81.8406 203.511 84.9323L204.585 86.6197ZM219.664 82.296C224.481 82.296 228.575 83.2504 231.984 85.1171L232.944 83.3629C229.185 81.3042 224.746 80.296 219.664 80.296V82.296ZM231.984 85.1171C235.419 86.9985 238.057 89.5201 239.923 92.684L241.645 91.668C239.586 88.1759 236.677 85.4069 232.944 83.3629L231.984 85.1171ZM241.784 92.176V82.192H239.784V92.176H241.784ZM240.784 83.192H265.872V81.192H240.784V83.192ZM264.872 82.192V154H266.872V82.192H264.872ZM265.872 153H240.784V155H265.872V153ZM241.784 154V144.016H239.784V154H241.784ZM239.923 143.508C238.06 146.666 235.385 149.187 231.864 151.07L232.808 152.834C236.626 150.792 239.582 148.022 241.645 144.524L239.923 143.508ZM231.856 151.075C228.445 152.943 224.392 153.896 219.664 153.896V155.896C224.664 155.896 229.059 154.886 232.816 152.829L231.856 151.075ZM219.664 153.896C214.131 153.896 209.113 152.454 204.585 149.572L203.511 151.26C208.37 154.351 213.762 155.896 219.664 155.896V153.896ZM204.592 149.577C200.154 146.7 196.598 142.58 193.937 137.174L192.143 138.058C194.943 143.745 198.726 148.158 203.504 151.255L204.592 149.577ZM193.945 137.191C191.373 131.715 190.072 125.337 190.072 118.032H188.072C188.072 125.575 189.416 132.253 192.135 138.041L193.945 137.191ZM241.784 118.032C241.784 113.233 240.446 109.333 237.663 106.457L236.225 107.847C238.562 110.262 239.784 113.615 239.784 118.032H241.784ZM237.674 106.469C235.008 103.618 231.67 102.184 227.728 102.184V104.184C231.125 104.184 233.931 105.395 236.214 107.835L237.674 106.469ZM227.728 102.184C223.708 102.184 220.325 103.613 217.654 106.469L219.114 107.835C221.392 105.4 224.239 104.184 227.728 104.184V102.184ZM217.665 106.457C214.959 109.257 213.672 113.164 213.672 118.032H215.672C215.672 113.513 216.86 110.167 219.103 107.847L217.665 106.457ZM213.672 118.032C213.672 122.824 214.963 126.754 217.643 129.712L219.125 128.368C216.856 125.865 215.672 122.456 215.672 118.032H213.672ZM217.654 129.723C220.325 132.579 223.708 134.008 227.728 134.008V132.008C224.239 132.008 221.392 130.792 219.114 128.357L217.654 129.723ZM227.728 134.008C231.67 134.008 235.008 132.574 237.674 129.723L236.214 128.357C233.931 130.797 231.125 132.008 227.728 132.008V134.008ZM237.663 129.735C240.449 126.856 241.784 122.91 241.784 118.032H239.784C239.784 122.54 238.559 125.933 236.225 128.345L237.663 129.735ZM322.536 132.624H323.536V131.624H322.536V132.624ZM322.536 154V155H323.536V154H322.536ZM284.136 103.056H285.136V102.056H284.136V103.056ZM275.304 103.056H274.304V104.056H275.304V103.056ZM275.304 82.192V81.192H274.304V82.192H275.304ZM284.136 82.192V83.192H285.136V82.192H284.136ZM284.136 64.784V63.784H283.136V64.784H284.136ZM309.352 64.784H310.352V63.784H309.352V64.784ZM309.352 82.192H308.352V83.192H309.352V82.192ZM322.408 82.192H323.408V81.192H322.408V82.192ZM322.408 103.056V104.056H323.408V103.056H322.408ZM309.352 103.056V102.056H308.352V103.056H309.352ZM310.632 131.344L309.925 132.051L309.942 132.068L309.959 132.084L310.632 131.344ZM321.536 132.624V154H323.536V132.624H321.536ZM322.536 153H311.656V155H322.536V153ZM311.656 153C302.634 153 296.052 150.766 291.72 146.474C287.389 142.183 285.136 135.667 285.136 126.736H283.136C283.136 135.981 285.47 143.097 290.312 147.894C295.153 152.69 302.331 155 311.656 155V153ZM285.136 126.736V103.056H283.136V126.736H285.136ZM284.136 102.056H275.304V104.056H284.136V102.056ZM276.304 103.056V82.192H274.304V103.056H276.304ZM275.304 83.192H284.136V81.192H275.304V83.192ZM285.136 82.192V64.784H283.136V82.192H285.136ZM284.136 65.784H309.352V63.784H284.136V65.784ZM308.352 64.784V82.192H310.352V64.784H308.352ZM309.352 83.192H322.408V81.192H309.352V83.192ZM321.408 82.192V103.056H323.408V82.192H321.408ZM322.408 102.056H309.352V104.056H322.408V102.056ZM308.352 103.056V127.12H310.352V103.056H308.352ZM308.352 127.12C308.352 129.189 308.796 130.922 309.925 132.051L311.339 130.637C310.762 130.059 310.352 128.976 310.352 127.12H308.352ZM309.959 132.084C311.172 133.187 313.015 133.624 315.24 133.624V131.624C313.198 131.624 311.969 131.208 311.305 130.604L309.959 132.084ZM315.24 133.624H322.536V131.624H315.24V133.624ZM402.267 123.152V124.152H403.145L403.259 123.281L402.267 123.152ZM354.779 123.152V122.152H353.712L353.781 123.217L354.779 123.152ZM357.979 131.984L357.256 132.675L357.272 132.691L357.288 132.707L357.979 131.984ZM374.363 129.168V128.168H373.732L373.461 128.737L374.363 129.168ZM401.115 129.168L402.091 129.387L402.364 128.168H401.115V129.168ZM394.587 142.48L393.816 141.843L393.815 141.845L394.587 142.48ZM382.555 151.568L382.97 152.478L382.97 152.478L382.555 151.568ZM347.483 150.416L347.003 151.293L347.009 151.296L347.483 150.416ZM334.555 137.616L333.68 138.101L333.686 138.111L334.555 137.616ZM334.555 98.576L335.427 99.0663L335.43 99.0605L334.555 98.576ZM347.355 85.776L346.881 84.8955L346.875 84.8986L347.355 85.776ZM385.243 85.648L385.712 84.7649L385.712 84.7649L385.243 85.648ZM398.043 98.192L397.171 98.6823L397.175 98.6881L398.043 98.192ZM377.051 110.992V111.992H378.051V110.992H377.051ZM373.979 103.824L373.32 104.577L373.33 104.585L373.339 104.592L373.979 103.824ZM358.747 103.696L359.384 104.467L359.394 104.459L359.403 104.451L358.747 103.696ZM354.907 110.992L353.924 110.811L353.706 111.992H354.907V110.992ZM401.651 117.264C401.651 119.183 401.526 121.103 401.275 123.023L403.259 123.281C403.52 121.276 403.651 119.27 403.651 117.264H401.651ZM402.267 122.152H354.779V124.152H402.267V122.152ZM353.781 123.217C354.046 127.274 355.157 130.481 357.256 132.675L358.702 131.293C357.046 129.562 356.024 126.88 355.777 123.087L353.781 123.217ZM357.288 132.707C359.456 134.78 362.187 135.8 365.403 135.8V133.8C362.646 133.8 360.427 132.942 358.67 131.261L357.288 132.707ZM365.403 135.8C367.647 135.8 369.631 135.295 371.311 134.239C372.992 133.182 374.303 131.616 375.265 129.599L373.461 128.737C372.631 130.475 371.553 131.724 370.247 132.545C368.94 133.367 367.341 133.8 365.403 133.8V135.8ZM374.363 130.168H401.115V128.168H374.363V130.168ZM400.139 128.949C399.064 133.744 396.959 138.039 393.816 141.843L395.358 143.117C398.7 139.071 400.947 134.49 402.091 129.387L400.139 128.949ZM393.815 141.845C390.761 145.559 386.876 148.498 382.14 150.658L382.97 152.478C387.962 150.201 392.098 147.081 395.359 143.115L393.815 141.845ZM382.14 150.658C377.419 152.812 372.186 153.896 366.427 153.896V155.896C372.444 155.896 377.963 154.762 382.97 152.478L382.14 150.658ZM366.427 153.896C359.489 153.896 353.341 152.434 347.957 149.536L347.009 151.296C352.719 154.371 359.2 155.896 366.427 155.896V153.896ZM347.963 149.539C342.668 146.643 338.492 142.511 335.424 137.121L333.686 138.111C336.933 143.814 341.375 148.215 347.003 151.293L347.963 149.539ZM335.43 137.131C332.454 131.758 330.947 125.403 330.947 118.032H328.947C328.947 125.68 330.512 132.38 333.68 138.1L335.43 137.131ZM330.947 118.032C330.947 110.66 332.454 104.351 335.427 99.0663L333.683 98.0857C330.512 103.724 328.947 110.385 328.947 118.032H330.947ZM335.43 99.0605C338.412 93.6763 342.543 89.5474 347.835 86.6534L346.875 84.8986C341.244 87.978 336.842 92.3824 333.68 98.0915L335.43 99.0605ZM347.829 86.6565C353.211 83.7585 359.401 82.296 366.427 82.296V80.296C359.117 80.296 352.592 81.8201 346.881 84.8955L347.829 86.6565ZM366.427 82.296C373.37 82.296 379.477 83.717 384.774 86.5311L385.712 84.7649C380.087 81.7763 373.649 80.296 366.427 80.296V82.296ZM384.774 86.5311C390.064 89.3414 394.192 93.3853 397.171 98.6823L398.915 97.7017C395.75 92.076 391.345 87.7572 385.712 84.7649L384.774 86.5311ZM397.175 98.6881C400.146 103.887 401.651 110.067 401.651 117.264H403.651C403.651 109.784 402.084 103.249 398.911 97.6959L397.175 98.6881ZM378.051 110.992C378.051 107.674 376.931 104.983 374.619 103.056L373.339 104.592C375.123 106.079 376.051 108.166 376.051 110.992H378.051ZM374.638 103.071C372.384 101.099 369.58 100.136 366.299 100.136V102.136C369.162 102.136 371.478 102.965 373.32 104.577L374.638 103.071ZM366.299 100.136C363.032 100.136 360.267 101.049 358.091 102.941L359.403 104.451C361.152 102.93 363.422 102.136 366.299 102.136V100.136ZM358.11 102.925C355.918 104.736 354.551 107.406 353.924 110.811L355.89 111.173C356.458 108.092 357.65 105.899 359.384 104.467L358.11 102.925ZM354.907 111.992H377.051V109.992H354.907V111.992ZM452.086 84.24L451.606 85.1171L451.614 85.1218L452.086 84.24ZM460.534 92.176L459.673 92.684L461.534 95.8402V92.176H460.534ZM460.534 82.192V81.192H459.534V82.192H460.534ZM485.622 82.192H486.622V81.192H485.622V82.192ZM481.782 171.408L480.879 170.978L480.877 170.984L481.782 171.408ZM469.75 184.464L469.239 183.604L469.234 183.608L469.75 184.464ZM422.646 181.52L423.262 180.732L423.262 180.732L422.646 181.52ZM411.254 160.272V159.272H410.144L410.259 160.376L411.254 160.272ZM435.958 160.272L436.934 160.055L436.76 159.272H435.958V160.272ZM439.798 165.648L439.268 166.496L439.268 166.496L439.798 165.648ZM460.534 144.016H461.534V140.352L459.673 143.508L460.534 144.016ZM452.086 151.952L451.614 151.07L451.606 151.075L452.086 151.952ZM423.798 150.416L423.254 151.255L423.261 151.26L423.798 150.416ZM412.79 137.616L411.885 138.041L411.889 138.049L411.893 138.058L412.79 137.616ZM412.79 98.576L411.893 98.1343L411.887 98.1455L412.79 98.576ZM423.798 85.776L423.261 84.9323L423.254 84.9368L423.798 85.776ZM456.694 107.152L455.964 107.835L455.97 107.841L455.975 107.847L456.694 107.152ZM438.134 107.152L438.853 107.847L438.859 107.841L438.864 107.835L438.134 107.152ZM438.134 129.04L437.393 129.712L437.398 129.717L437.404 129.723L438.134 129.04ZM456.694 129.04L455.975 128.345L455.97 128.351L455.964 128.357L456.694 129.04ZM439.414 82.296C444.142 82.296 448.195 83.2491 451.606 85.1171L452.566 83.3629C448.809 81.3055 444.414 80.296 439.414 80.296V82.296ZM451.614 85.1218C455.135 87.0049 457.81 89.5261 459.673 92.684L461.395 91.668C459.332 88.1699 456.376 85.4005 452.558 83.3582L451.614 85.1218ZM461.534 92.176V82.192H459.534V92.176H461.534ZM460.534 83.192H485.622V81.192H460.534V83.192ZM484.622 82.192V153.232H486.622V82.192H484.622ZM484.622 153.232C484.622 159.844 483.367 165.753 480.879 170.978L482.685 171.838C485.317 166.311 486.622 160.102 486.622 153.232H484.622ZM480.877 170.984C478.406 176.254 474.538 180.458 469.239 183.604L470.261 185.324C475.885 181.985 480.038 177.485 482.687 171.832L480.877 170.984ZM469.234 183.608C464.056 186.731 457.422 188.328 449.27 188.328V190.328C457.673 190.328 464.692 188.682 470.266 185.32L469.234 183.608ZM449.27 188.328C438.33 188.328 429.694 185.762 423.262 180.732L422.03 182.308C428.91 187.688 438.023 190.328 449.27 190.328V188.328ZM423.262 180.732C416.835 175.706 413.161 168.878 412.249 160.168L410.259 160.376C411.224 169.586 415.145 176.923 422.03 182.308L423.262 180.732ZM411.254 161.272H435.958V159.272H411.254V161.272ZM434.982 160.489C435.553 163.061 436.999 165.078 439.268 166.496L440.328 164.8C438.501 163.658 437.387 162.091 436.934 160.055L434.982 160.489ZM439.268 166.496C441.521 167.904 444.366 168.568 447.734 168.568V166.568C444.616 166.568 442.171 165.952 440.328 164.8L439.268 166.496ZM447.734 168.568C452.186 168.568 455.699 167.316 458.08 164.65C460.441 162.005 461.534 158.139 461.534 153.232H459.534C459.534 157.883 458.493 161.184 456.588 163.318C454.702 165.43 451.815 166.568 447.734 166.568V168.568ZM461.534 153.232V144.016H459.534V153.232H461.534ZM459.673 143.508C457.81 146.666 455.135 149.187 451.614 151.07L452.558 152.834C456.376 150.792 459.332 148.022 461.395 144.524L459.673 143.508ZM451.606 151.075C448.195 152.943 444.142 153.896 439.414 153.896V155.896C444.414 155.896 448.809 154.886 452.566 152.829L451.606 151.075ZM439.414 153.896C433.881 153.896 428.863 152.454 424.335 149.572L423.261 151.26C428.12 154.351 433.512 155.896 439.414 155.896V153.896ZM424.342 149.577C419.904 146.7 416.348 142.58 413.687 137.174L411.893 138.058C414.693 143.745 418.476 148.158 423.254 151.255L424.342 149.577ZM413.695 137.191C411.123 131.715 409.822 125.337 409.822 118.032H407.822C407.822 125.575 409.166 132.253 411.885 138.041L413.695 137.191ZM409.822 118.032C409.822 110.726 411.123 104.394 413.693 99.0065L411.887 98.1455C409.166 103.852 407.822 110.49 407.822 118.032H409.822ZM413.687 99.0177C416.348 93.6121 419.904 89.4917 424.342 86.6151L423.254 84.9368C418.476 88.0336 414.693 92.4466 411.893 98.1343L413.687 99.0177ZM424.335 86.6197C428.863 83.738 433.881 82.296 439.414 82.296V80.296C433.512 80.296 428.12 81.8406 423.261 84.9323L424.335 86.6197ZM461.534 118.032C461.534 113.233 460.196 109.333 457.413 106.457L455.975 107.847C458.312 110.262 459.534 113.615 459.534 118.032H461.534ZM457.424 106.469C454.758 103.618 451.42 102.184 447.478 102.184V104.184C450.875 104.184 453.681 105.395 455.964 107.835L457.424 106.469ZM447.478 102.184C443.458 102.184 440.075 103.613 437.404 106.469L438.864 107.835C441.142 105.4 443.989 104.184 447.478 104.184V102.184ZM437.415 106.457C434.709 109.257 433.422 113.164 433.422 118.032H435.422C435.422 113.513 436.61 110.167 438.853 107.847L437.415 106.457ZM433.422 118.032C433.422 122.824 434.713 126.754 437.393 129.712L438.875 128.368C436.606 125.865 435.422 122.456 435.422 118.032H433.422ZM437.404 129.723C440.075 132.579 443.458 134.008 447.478 134.008V132.008C443.989 132.008 441.142 130.792 438.864 128.357L437.404 129.723ZM447.478 134.008C451.42 134.008 454.758 132.574 457.424 129.723L455.964 128.357C453.681 130.797 450.875 132.008 447.478 132.008V134.008ZM457.413 129.735C460.199 126.856 461.534 122.91 461.534 118.032H459.534C459.534 122.54 458.309 125.933 455.975 128.345L457.413 129.735ZM513.998 150.416L513.529 151.299L513.535 151.302L513.998 150.416ZM500.686 137.616L501.549 137.111L501.549 137.111L500.686 137.616ZM500.686 98.576L499.828 98.0615L499.823 98.0713L500.686 98.576ZM514.126 85.776L513.663 84.8896L513.657 84.8925L514.126 85.776ZM552.654 85.776L552.185 86.6595L552.191 86.6623L552.654 85.776ZM566.094 98.576L565.231 99.0807L565.237 99.0905L566.094 98.576ZM566.094 137.616L565.233 137.107L565.231 137.111L566.094 137.616ZM552.654 150.416L552.191 149.53L552.654 150.416ZM542.03 129.296L541.288 128.626L541.287 128.627L542.03 129.296ZM542.03 106.896L541.287 107.565L541.293 107.572L541.299 107.578L542.03 106.896ZM524.75 129.296L523.994 129.951L523.994 129.951L524.75 129.296ZM533.326 153.896C526.301 153.896 520.02 152.434 514.461 149.53L513.535 151.302C519.411 154.372 526.015 155.896 533.326 155.896V153.896ZM514.467 149.533C509 146.634 504.699 142.499 501.549 137.111L499.823 138.121C503.158 143.827 507.732 148.225 513.529 151.299L514.467 149.533ZM501.549 137.111C498.41 131.742 496.822 125.394 496.822 118.032H494.822C494.822 125.688 496.476 132.397 499.823 138.121L501.549 137.111ZM496.822 118.032C496.822 110.757 498.409 104.452 501.549 99.0807L499.823 98.0713C496.477 103.794 494.822 110.459 494.822 118.032H496.822ZM501.543 99.0905C504.779 93.6975 509.126 89.5595 514.595 86.6595L513.657 84.8925C507.862 87.9658 503.249 92.3611 499.829 98.0615L501.543 99.0905ZM514.589 86.6623C520.148 83.7583 526.429 82.296 533.454 82.296V80.296C526.143 80.296 519.539 81.8203 513.663 84.8896L514.589 86.6623ZM533.454 82.296C540.479 82.296 546.715 83.7584 552.186 86.6595L553.123 84.8925C547.329 81.8202 540.765 80.296 533.454 80.296V82.296ZM552.191 86.6623C557.742 89.5623 562.083 93.697 565.231 99.0807L566.957 98.0713C563.619 92.3616 559 87.963 553.117 84.8896L552.191 86.6623ZM565.237 99.0905C568.458 104.46 570.086 110.762 570.086 118.032H572.086C572.086 110.454 570.386 103.785 566.951 98.0615L565.237 99.0905ZM570.086 118.032C570.086 125.302 568.458 131.649 565.233 137.107L566.955 138.125C570.386 132.319 572.086 125.61 572.086 118.032H570.086ZM565.231 137.111C562.083 142.495 557.742 146.63 552.191 149.53L553.117 151.302C559 148.229 563.619 143.83 566.957 138.121L565.231 137.111ZM552.191 149.53C546.632 152.434 540.351 153.896 533.326 153.896V155.896C540.637 155.896 547.241 154.372 553.117 151.302L552.191 149.53ZM533.326 134.136C537.103 134.136 540.276 132.739 542.773 129.965L541.287 128.627C539.176 130.973 536.546 132.136 533.326 132.136V134.136ZM542.772 129.966C545.38 127.079 546.614 123.053 546.614 118.032H544.614C544.614 122.739 543.459 126.222 541.288 128.626L542.772 129.966ZM546.614 118.032C546.614 113.014 545.381 109.02 542.761 106.214L541.299 107.578C543.458 109.891 544.614 113.322 544.614 118.032H546.614ZM542.773 106.227C540.282 103.458 537.154 102.056 533.454 102.056V104.056C536.581 104.056 539.17 105.213 541.287 107.565L542.773 106.227ZM533.454 102.056C529.754 102.056 526.626 103.458 524.135 106.227L525.621 107.565C527.738 105.213 530.327 104.056 533.454 104.056V102.056ZM524.135 106.227C521.608 109.034 520.422 113.022 520.422 118.032H522.422C522.422 113.314 523.54 109.878 525.621 107.565L524.135 106.227ZM520.422 118.032C520.422 123.113 521.559 127.141 523.994 129.951L525.506 128.641C523.503 126.331 522.422 122.849 522.422 118.032H520.422ZM523.994 129.951C526.41 132.738 529.548 134.136 533.326 134.136V132.136C530.106 132.136 527.527 130.974 525.506 128.641L523.994 129.951ZM606.381 94.864H605.381V98.0837L607.205 95.4305L606.381 94.864ZM629.549 81.552H630.549V80.552H629.549V81.552ZM629.549 108.304V109.304H630.549V108.304H629.549ZM610.349 111.504L610.977 112.282L610.977 112.282L610.349 111.504ZM606.381 154V155H607.381V154H606.381ZM581.293 154H580.293V155H581.293V154ZM581.293 82.192V81.192H580.293V82.192H581.293ZM606.381 82.192H607.381V81.192H606.381V82.192ZM607.205 95.4305C609.945 91.4456 613.254 88.3059 617.133 85.9951L616.109 84.2769C611.967 86.7448 608.449 90.0904 605.557 94.2975L607.205 95.4305ZM617.133 85.9951C620.991 83.6967 625.124 82.552 629.549 82.552V80.552C624.758 80.552 620.273 81.7966 616.109 84.2769L617.133 85.9951ZM628.549 81.552V108.304H630.549V81.552H628.549ZM629.549 107.304H622.509V109.304H629.549V107.304ZM622.509 107.304C616.949 107.304 612.624 108.385 609.721 110.726L610.977 112.282C613.365 110.357 617.147 109.304 622.509 109.304V107.304ZM609.721 110.726C606.734 113.134 605.381 117.217 605.381 122.64H607.381C607.381 117.482 608.673 114.14 610.977 112.282L609.721 110.726ZM605.381 122.64V154H607.381V122.64H605.381ZM606.381 153H581.293V155H606.381V153ZM582.293 154V82.192H580.293V154H582.293ZM581.293 83.192H606.381V81.192H581.293V83.192ZM605.381 82.192V94.864H607.381V82.192H605.381ZM715.855 82.192L716.774 82.587L717.373 81.192H715.855V82.192ZM670.287 188.176V189.176H670.946L671.206 188.571L670.287 188.176ZM643.023 188.176L642.115 187.758L641.462 189.176H643.023V188.176ZM660.175 150.928L661.083 151.346L661.269 150.943L661.094 150.534L660.175 150.928ZM630.735 82.192V81.192H629.219L629.816 82.5857L630.735 82.192ZM658.639 82.192L659.577 81.8441L659.335 81.192H658.639V82.192ZM673.743 122.896L672.805 123.244L673.759 125.814L674.684 123.233L673.743 122.896ZM688.335 82.192V81.192H687.631L687.394 81.8545L688.335 82.192ZM714.936 81.797L669.368 187.781L671.206 188.571L716.774 82.587L714.936 81.797ZM670.287 187.176H643.023V189.176H670.287V187.176ZM643.931 188.594L661.083 151.346L659.267 150.51L642.115 187.758L643.931 188.594ZM661.094 150.534L631.654 81.7983L629.816 82.5857L659.256 151.322L661.094 150.534ZM630.735 83.192H658.639V81.192H630.735V83.192ZM657.701 82.5399L672.805 123.244L674.681 122.548L659.577 81.8441L657.701 82.5399ZM674.684 123.233L689.276 82.5295L687.394 81.8545L672.802 122.559L674.684 123.233ZM688.335 83.192H715.855V81.192H688.335V83.192Z" fill="black" mask="url(#path-3-outside-2_125_45)"/>
</svg>
