<svg width="1512" height="982" viewBox="0 0 1512 982" fill="none" xmlns="http://www.w3.org/2000/svg">
<g clip-path="url(#clip0_115_2)">
<rect width="1512" height="982" fill="white"/>
<rect x="484" y="-198" width="543" height="334" rx="167" fill="black"/>
<line x1="1432.29" y1="414.116" x2="1432.29" y2="-15.7881" stroke="url(#paint0_linear_115_2)"/>
<line x1="1138.88" y1="332.353" x2="1568.78" y2="333.518" stroke="url(#paint1_linear_115_2)"/>
<line x1="1138.25" y1="174.659" x2="1568.16" y2="175.824" stroke="url(#paint2_linear_115_2)"/>
<line x1="1137.63" y1="292.929" x2="1567.53" y2="294.094" stroke="url(#paint3_linear_115_2)"/>
<line x1="1137" y1="135.235" x2="1566.9" y2="136.4" stroke="url(#paint4_linear_115_2)"/>
<line x1="1469.92" y1="420.999" x2="1471.09" y2="-8.90428" stroke="url(#paint5_linear_115_2)"/>
<line x1="1310.98" y1="414.115" x2="1312.14" y2="-15.7878" stroke="url(#paint6_linear_115_2)"/>
<line x1="1353.44" y1="414.116" x2="1353.44" y2="-15.7881" stroke="url(#paint7_linear_115_2)"/>
<line x1="1139.09" y1="253.506" x2="1569" y2="254.671" stroke="url(#paint8_linear_115_2)"/>
<line x1="1138.47" y1="95.8118" x2="1568.37" y2="96.9768" stroke="url(#paint9_linear_115_2)"/>
<line x1="1137.84" y1="214.083" x2="1567.74" y2="215.248" stroke="url(#paint10_linear_115_2)"/>
<line x1="1137.21" y1="56.3884" x2="1567.12" y2="57.5535" stroke="url(#paint11_linear_115_2)"/>
<line x1="1391.08" y1="420.785" x2="1392.24" y2="-9.1179" stroke="url(#paint12_linear_115_2)"/>
<line x1="1232.13" y1="413.901" x2="1233.29" y2="-16.0014" stroke="url(#paint13_linear_115_2)"/>
<line x1="1274.6" y1="414.116" x2="1274.6" y2="-15.7881" stroke="url(#paint14_linear_115_2)"/>
<line x1="1139.31" y1="174.659" x2="1569.21" y2="175.824" stroke="url(#paint15_linear_115_2)"/>
<line x1="1138.68" y1="16.9651" x2="1568.58" y2="18.1301" stroke="url(#paint16_linear_115_2)"/>
<line x1="1138.05" y1="135.236" x2="1567.96" y2="136.401" stroke="url(#paint17_linear_115_2)"/>
<line x1="101.053" y1="498.899" x2="101.053" y2="992.256" stroke="url(#paint18_linear_115_2)"/>
<line x1="437.844" y1="592.657" x2="-55.5109" y2="591.32" stroke="url(#paint19_linear_115_2)"/>
<line x1="438.562" y1="773.627" x2="-54.7928" y2="772.29" stroke="url(#paint20_linear_115_2)"/>
<line x1="439.281" y1="637.9" x2="-54.0746" y2="636.563" stroke="url(#paint21_linear_115_2)"/>
<line x1="439.999" y1="818.869" x2="-53.3565" y2="817.532" stroke="url(#paint22_linear_115_2)"/>
<line x1="57.8656" y1="491.001" x2="56.5286" y2="984.357" stroke="url(#paint23_linear_115_2)"/>
<line x1="240.271" y1="498.901" x2="238.934" y2="992.256" stroke="url(#paint24_linear_115_2)"/>
<line x1="191.537" y1="498.899" x2="191.537" y2="992.256" stroke="url(#paint25_linear_115_2)"/>
<line x1="437.599" y1="683.142" x2="-55.7562" y2="681.805" stroke="url(#paint26_linear_115_2)"/>
<line x1="438.317" y1="864.111" x2="-55.0379" y2="862.774" stroke="url(#paint27_linear_115_2)"/>
<line x1="439.035" y1="728.384" x2="-54.3199" y2="727.047" stroke="url(#paint28_linear_115_2)"/>
<line x1="439.754" y1="909.354" x2="-53.6016" y2="908.017" stroke="url(#paint29_linear_115_2)"/>
<line x1="148.35" y1="491.246" x2="147.013" y2="984.602" stroke="url(#paint30_linear_115_2)"/>
<line x1="330.756" y1="499.146" x2="329.419" y2="992.501" stroke="url(#paint31_linear_115_2)"/>
<line x1="282.022" y1="498.899" x2="282.022" y2="992.256" stroke="url(#paint32_linear_115_2)"/>
<line x1="437.354" y1="773.626" x2="-56.0014" y2="772.289" stroke="url(#paint33_linear_115_2)"/>
<line x1="438.072" y1="954.596" x2="-55.2833" y2="953.259" stroke="url(#paint34_linear_115_2)"/>
<line x1="438.79" y1="818.869" x2="-54.5651" y2="817.531" stroke="url(#paint35_linear_115_2)"/>
</g>
<defs>
<linearGradient id="paint0_linear_115_2" x1="1432.79" y1="414.116" x2="1432.79" y2="-15.7881" gradientUnits="userSpaceOnUse">
<stop stop-color="white" stop-opacity="0"/>
<stop offset="0.759838"/>
</linearGradient>
<linearGradient id="paint1_linear_115_2" x1="1138.88" y1="332.853" x2="1568.78" y2="334.018" gradientUnits="userSpaceOnUse">
<stop stop-color="white" stop-opacity="0"/>
<stop offset="0.759838"/>
</linearGradient>
<linearGradient id="paint2_linear_115_2" x1="1138.25" y1="175.159" x2="1568.15" y2="176.324" gradientUnits="userSpaceOnUse">
<stop stop-color="white" stop-opacity="0"/>
<stop offset="0.759838"/>
</linearGradient>
<linearGradient id="paint3_linear_115_2" x1="1137.63" y1="293.429" x2="1567.53" y2="294.594" gradientUnits="userSpaceOnUse">
<stop stop-color="white" stop-opacity="0"/>
<stop offset="0.759838"/>
</linearGradient>
<linearGradient id="paint4_linear_115_2" x1="1137" y1="135.735" x2="1566.9" y2="136.9" gradientUnits="userSpaceOnUse">
<stop stop-color="white" stop-opacity="0"/>
<stop offset="0.759838"/>
</linearGradient>
<linearGradient id="paint5_linear_115_2" x1="1470.42" y1="421" x2="1471.59" y2="-8.90292" gradientUnits="userSpaceOnUse">
<stop stop-color="white" stop-opacity="0"/>
<stop offset="0.759838"/>
</linearGradient>
<linearGradient id="paint6_linear_115_2" x1="1311.48" y1="414.116" x2="1312.64" y2="-15.7865" gradientUnits="userSpaceOnUse">
<stop stop-color="white" stop-opacity="0"/>
<stop offset="0.759838"/>
</linearGradient>
<linearGradient id="paint7_linear_115_2" x1="1353.94" y1="414.116" x2="1353.94" y2="-15.7881" gradientUnits="userSpaceOnUse">
<stop stop-color="white" stop-opacity="0"/>
<stop offset="0.759838"/>
</linearGradient>
<linearGradient id="paint8_linear_115_2" x1="1139.09" y1="254.006" x2="1568.99" y2="255.171" gradientUnits="userSpaceOnUse">
<stop stop-color="white" stop-opacity="0"/>
<stop offset="0.759838"/>
</linearGradient>
<linearGradient id="paint9_linear_115_2" x1="1138.47" y1="96.3118" x2="1568.37" y2="97.4768" gradientUnits="userSpaceOnUse">
<stop stop-color="white" stop-opacity="0"/>
<stop offset="0.759838"/>
</linearGradient>
<linearGradient id="paint10_linear_115_2" x1="1137.84" y1="214.583" x2="1567.74" y2="215.748" gradientUnits="userSpaceOnUse">
<stop stop-color="white" stop-opacity="0"/>
<stop offset="0.759838"/>
</linearGradient>
<linearGradient id="paint11_linear_115_2" x1="1137.21" y1="56.8884" x2="1567.12" y2="58.0534" gradientUnits="userSpaceOnUse">
<stop stop-color="white" stop-opacity="0"/>
<stop offset="0.759838"/>
</linearGradient>
<linearGradient id="paint12_linear_115_2" x1="1391.58" y1="420.786" x2="1392.74" y2="-9.11654" gradientUnits="userSpaceOnUse">
<stop stop-color="white" stop-opacity="0"/>
<stop offset="0.759838"/>
</linearGradient>
<linearGradient id="paint13_linear_115_2" x1="1232.63" y1="413.903" x2="1233.79" y2="-16.0001" gradientUnits="userSpaceOnUse">
<stop stop-color="white" stop-opacity="0"/>
<stop offset="0.759838"/>
</linearGradient>
<linearGradient id="paint14_linear_115_2" x1="1275.1" y1="414.116" x2="1275.1" y2="-15.7881" gradientUnits="userSpaceOnUse">
<stop stop-color="white" stop-opacity="0"/>
<stop offset="0.759838"/>
</linearGradient>
<linearGradient id="paint15_linear_115_2" x1="1139.3" y1="175.159" x2="1569.21" y2="176.324" gradientUnits="userSpaceOnUse">
<stop stop-color="white" stop-opacity="0"/>
<stop offset="0.759838"/>
</linearGradient>
<linearGradient id="paint16_linear_115_2" x1="1138.68" y1="17.4651" x2="1568.58" y2="18.6301" gradientUnits="userSpaceOnUse">
<stop stop-color="white" stop-opacity="0"/>
<stop offset="0.759838"/>
</linearGradient>
<linearGradient id="paint17_linear_115_2" x1="1138.05" y1="135.736" x2="1567.96" y2="136.901" gradientUnits="userSpaceOnUse">
<stop stop-color="white" stop-opacity="0"/>
<stop offset="0.759838"/>
</linearGradient>
<linearGradient id="paint18_linear_115_2" x1="100.553" y1="498.899" x2="100.553" y2="992.256" gradientUnits="userSpaceOnUse">
<stop offset="0.134838" stop-color="white" stop-opacity="0"/>
<stop offset="0.811921"/>
</linearGradient>
<linearGradient id="paint19_linear_115_2" x1="437.846" y1="592.157" x2="-55.5096" y2="590.82" gradientUnits="userSpaceOnUse">
<stop offset="0.134838" stop-color="white" stop-opacity="0"/>
<stop offset="0.811921"/>
</linearGradient>
<linearGradient id="paint20_linear_115_2" x1="438.564" y1="773.127" x2="-54.7914" y2="771.79" gradientUnits="userSpaceOnUse">
<stop offset="0.134838" stop-color="white" stop-opacity="0"/>
<stop offset="0.811921"/>
</linearGradient>
<linearGradient id="paint21_linear_115_2" x1="439.282" y1="637.4" x2="-54.0733" y2="636.063" gradientUnits="userSpaceOnUse">
<stop offset="0.134838" stop-color="white" stop-opacity="0"/>
<stop offset="0.811921"/>
</linearGradient>
<linearGradient id="paint22_linear_115_2" x1="440" y1="818.369" x2="-53.3551" y2="817.032" gradientUnits="userSpaceOnUse">
<stop offset="0.134838" stop-color="white" stop-opacity="0"/>
<stop offset="0.811921"/>
</linearGradient>
<linearGradient id="paint23_linear_115_2" x1="57.3656" y1="491" x2="56.0286" y2="984.355" gradientUnits="userSpaceOnUse">
<stop offset="0.134838" stop-color="white" stop-opacity="0"/>
<stop offset="0.811921"/>
</linearGradient>
<linearGradient id="paint24_linear_115_2" x1="239.771" y1="498.899" x2="238.434" y2="992.255" gradientUnits="userSpaceOnUse">
<stop offset="0.134838" stop-color="white" stop-opacity="0"/>
<stop offset="0.811921"/>
</linearGradient>
<linearGradient id="paint25_linear_115_2" x1="191.037" y1="498.899" x2="191.037" y2="992.256" gradientUnits="userSpaceOnUse">
<stop offset="0.134838" stop-color="white" stop-opacity="0"/>
<stop offset="0.811921"/>
</linearGradient>
<linearGradient id="paint26_linear_115_2" x1="437.6" y1="682.642" x2="-55.7548" y2="681.305" gradientUnits="userSpaceOnUse">
<stop offset="0.134838" stop-color="white" stop-opacity="0"/>
<stop offset="0.811921"/>
</linearGradient>
<linearGradient id="paint27_linear_115_2" x1="438.319" y1="863.611" x2="-55.0365" y2="862.274" gradientUnits="userSpaceOnUse">
<stop offset="0.134838" stop-color="white" stop-opacity="0"/>
<stop offset="0.811921"/>
</linearGradient>
<linearGradient id="paint28_linear_115_2" x1="439.037" y1="727.884" x2="-54.3185" y2="726.547" gradientUnits="userSpaceOnUse">
<stop offset="0.134838" stop-color="white" stop-opacity="0"/>
<stop offset="0.811921"/>
</linearGradient>
<linearGradient id="paint29_linear_115_2" x1="439.755" y1="908.854" x2="-53.6003" y2="907.517" gradientUnits="userSpaceOnUse">
<stop offset="0.134838" stop-color="white" stop-opacity="0"/>
<stop offset="0.811921"/>
</linearGradient>
<linearGradient id="paint30_linear_115_2" x1="147.85" y1="491.245" x2="146.513" y2="984.6" gradientUnits="userSpaceOnUse">
<stop offset="0.134838" stop-color="white" stop-opacity="0"/>
<stop offset="0.811921"/>
</linearGradient>
<linearGradient id="paint31_linear_115_2" x1="330.256" y1="499.145" x2="328.919" y2="992.5" gradientUnits="userSpaceOnUse">
<stop offset="0.134838" stop-color="white" stop-opacity="0"/>
<stop offset="0.811921"/>
</linearGradient>
<linearGradient id="paint32_linear_115_2" x1="281.522" y1="498.899" x2="281.522" y2="992.256" gradientUnits="userSpaceOnUse">
<stop offset="0.134838" stop-color="white" stop-opacity="0"/>
<stop offset="0.811921"/>
</linearGradient>
<linearGradient id="paint33_linear_115_2" x1="437.355" y1="773.126" x2="-56" y2="771.789" gradientUnits="userSpaceOnUse">
<stop offset="0.134838" stop-color="white" stop-opacity="0"/>
<stop offset="0.811921"/>
</linearGradient>
<linearGradient id="paint34_linear_115_2" x1="438.073" y1="954.096" x2="-55.2819" y2="952.759" gradientUnits="userSpaceOnUse">
<stop offset="0.134838" stop-color="white" stop-opacity="0"/>
<stop offset="0.811921"/>
</linearGradient>
<linearGradient id="paint35_linear_115_2" x1="438.791" y1="818.369" x2="-54.5638" y2="817.032" gradientUnits="userSpaceOnUse">
<stop offset="0.134838" stop-color="white" stop-opacity="0"/>
<stop offset="0.811921"/>
</linearGradient>
<clipPath id="clip0_115_2">
<rect width="1512" height="982" fill="white"/>
</clipPath>
</defs>
</svg>
