<svg width="185" height="48" viewBox="0 0 185 48" fill="none" xmlns="http://www.w3.org/2000/svg">
<path d="M15.944 35.672H34.12V47H0.2V36.312L18.12 12.952H0.2V1.688H34.12V12.376L15.944 35.672ZM54.7205 13.016V18.584H68.8005V29.272H54.7205V35.672H70.7205V47H40.5125V1.688H70.7205V13.016H54.7205ZM98.859 47L90.347 30.744H90.283V47H76.075V1.688H97.195C100.864 1.688 104 2.34933 106.603 3.672C109.206 4.952 111.147 6.72267 112.427 8.984C113.75 11.2027 114.411 13.72 114.411 16.536C114.411 19.5653 113.558 22.2533 111.851 24.6C110.187 26.9467 107.776 28.632 104.619 29.656L114.475 47H98.859ZM90.283 21.272H95.915C97.2803 21.272 98.3043 20.9733 98.987 20.376C99.6697 19.736 100.011 18.7547 100.011 17.432C100.011 16.2373 99.6483 15.2987 98.923 14.616C98.2403 13.9333 97.2377 13.592 95.915 13.592H90.283V21.272ZM141.03 47.448C136.763 47.448 132.838 46.4453 129.254 44.44C125.713 42.4347 122.897 39.6613 120.806 36.12C118.715 32.5787 117.67 28.5893 117.67 24.152C117.67 19.7147 118.715 15.7253 120.806 12.184C122.897 8.64266 125.713 5.89066 129.254 3.928C132.838 1.92266 136.763 0.919998 141.03 0.919998C145.297 0.919998 149.201 1.92266 152.742 3.928C156.283 5.89066 159.078 8.64266 161.126 12.184C163.217 15.7253 164.262 19.7147 164.262 24.152C164.262 28.5893 163.217 32.5787 161.126 36.12C159.078 39.6613 156.262 42.4347 152.678 44.44C149.137 46.4453 145.254 47.448 141.03 47.448ZM141.03 34.2C143.846 34.2 146.022 33.304 147.558 31.512C149.094 29.6773 149.862 27.224 149.862 24.152C149.862 21.0373 149.094 18.584 147.558 16.792C146.022 14.9573 143.846 14.04 141.03 14.04C138.171 14.04 135.974 14.9573 134.438 16.792C132.902 18.584 132.134 21.0373 132.134 24.152C132.134 27.224 132.902 29.6773 134.438 31.512C135.974 33.304 138.171 34.2 141.03 34.2ZM176.428 47.512C173.953 47.512 171.969 46.8507 170.476 45.528C168.982 44.2053 168.236 42.5413 168.236 40.536C168.236 38.488 168.982 36.8027 170.476 35.48C171.969 34.1147 173.953 33.432 176.428 33.432C178.86 33.432 180.822 34.1147 182.316 35.48C183.809 36.8027 184.556 38.488 184.556 40.536C184.556 42.5413 183.809 44.2053 182.316 45.528C180.822 46.8507 178.86 47.512 176.428 47.512Z" fill="black"/>
</svg>
